<?xml version="1.0" encoding="UTF-8"?>
<svg version="1.1" xmlns="http://www.w3.org/2000/svg" width="1246" height="623">
<path d="M0 0 C0.82862549 0.00451172 1.65725098 0.00902344 2.51098633 0.01367188 C4.53600178 0.02535185 6.56097955 0.04328332 8.5859375 0.0625 C8.6013987 1.39479897 8.6013987 1.39479897 8.61717224 2.75401306 C9.23694834 56.73376113 9.23694834 56.73376113 10.02664185 110.71121216 C10.06606782 113.14728291 10.10389781 115.58338003 10.1401062 118.01950073 C10.19033301 121.36335678 10.24655388 124.70705461 10.3046875 128.05078125 C10.31822769 129.0198642 10.33176788 129.98894714 10.34571838 130.98739624 C10.36247116 131.86980988 10.37922394 132.75222351 10.39648438 133.66137695 C10.40901245 134.42078079 10.42154053 135.18018463 10.43444824 135.96260071 C10.58848121 138.0977601 11.00398348 140.0061424 11.5859375 142.0625 C12.0396875 141.5675 12.4934375 141.0725 12.9609375 140.5625 C14.5859375 139.0625 14.5859375 139.0625 16.5859375 139.0625 C16.5859375 138.4025 16.5859375 137.7425 16.5859375 137.0625 C17.2459375 137.0625 17.9059375 137.0625 18.5859375 137.0625 C18.8128125 136.32 19.0396875 135.5775 19.2734375 134.8125 C20.87172326 131.46371079 22.66003191 130.33820435 25.5859375 128.0625 C27.41170888 126.08214386 29.15586436 124.04321859 30.90625 121.99609375 C33.01832315 119.56475373 35.30874806 117.33968944 37.5859375 115.0625 C43.68403426 108.42158023 49.68979574 101.68073728 55.50390625 94.7890625 C56.12910156 94.05429688 56.75429688 93.31953125 57.3984375 92.5625 C57.96175781 91.8921875 58.52507812 91.221875 59.10546875 90.53125 C60.5859375 89.0625 60.5859375 89.0625 62.5859375 89.0625 C62.92625 87.9796875 62.92625 87.9796875 63.2734375 86.875 C64.85925625 83.47681697 66.84717074 81.61019001 69.5859375 79.0625 C72.28432198 76.49574403 74.51626326 74.16701137 76.5859375 71.0625 C78.66498406 67.94393016 80.87640375 65.64600893 83.5859375 63.0625 C84.81932677 61.85847714 86.04830513 60.64992353 87.2734375 59.4375 C88.14548828 58.58285156 88.14548828 58.58285156 89.03515625 57.7109375 C90.78845648 55.93867026 90.78845648 55.93867026 92.5859375 53.0625 C93.2459375 53.0625 93.9059375 53.0625 94.5859375 53.0625 C94.8128125 52.505625 95.0396875 51.94875 95.2734375 51.375 C96.58511494 49.06394928 98.07504155 47.485747 99.984375 45.66015625 C102.00665871 43.64280494 103.87947731 41.51323421 105.7734375 39.375 C118.21526605 25.4792015 118.21526605 25.4792015 125.5859375 20.0625 C126.2459375 20.0625 126.9059375 20.0625 127.5859375 20.0625 C127.9159375 19.0725 128.2459375 18.0825 128.5859375 17.0625 C130.35217758 16.09279956 132.13338241 15.14538272 133.9609375 14.296875 C135.92121185 13.37507932 137.85510979 12.39680669 139.7734375 11.390625 C158.76785751 1.46943241 177.56595392 -0.2759196 198.65234375 -0.1328125 C200.30956346 -0.12906849 201.96678543 -0.12622811 203.62400818 -0.12423706 C207.92286619 -0.11670959 212.22158256 -0.09715898 216.52038574 -0.0748291 C220.93219081 -0.0541318 225.34401944 -0.04518503 229.75585938 -0.03515625 C238.36594942 -0.01389927 246.97592569 0.02009965 255.5859375 0.0625 C254.78521848 3.92576289 253.2674166 6.13725007 250.5859375 9.0625 C249.9259375 9.0625 249.2659375 9.0625 248.5859375 9.0625 C248.5240625 9.64 248.4621875 10.2175 248.3984375 10.8125 C247.2682499 13.94225028 245.17576058 15.02763901 242.5859375 17.0625 C242.1425 17.81402344 241.6990625 18.56554687 241.2421875 19.33984375 C239.30490759 22.52447605 237.02216546 24.98033313 234.4609375 27.6875 C230.10577111 32.34785117 226.00304561 37.14275844 221.9921875 42.10546875 C219.07981084 45.68447708 216.12766319 49.22654831 213.1484375 52.75 C212.36738647 53.68755127 212.36738647 53.68755127 211.57055664 54.64404297 C210.28638291 56.15540853 208.94103524 57.61438463 207.5859375 59.0625 C206.9259375 59.0625 206.2659375 59.0625 205.5859375 59.0625 C205.48015381 59.65417969 205.37437012 60.24585938 205.26538086 60.85546875 C204.48886375 63.37782399 203.54616033 64.49689898 201.71484375 66.375 C201.14056641 66.97570312 200.56628906 67.57640625 199.97460938 68.1953125 C199.37197266 68.81148438 198.76933594 69.42765625 198.1484375 70.0625 C196.95798734 71.28754882 195.77163522 72.51659613 194.58984375 73.75 C194.06205322 74.29011719 193.5342627 74.83023438 192.99047852 75.38671875 C191.48888298 77.17829737 190.61220356 78.97142019 189.5859375 81.0625 C187.94290797 82.75247323 186.27122438 84.41466394 184.5859375 86.0625 C181.23386166 89.74619832 178.01966626 93.55307392 174.78515625 97.33984375 C174.28443604 97.92580322 173.78371582 98.5117627 173.26782227 99.11547852 C172.22746708 100.33300568 171.18759285 101.55094397 170.14819336 102.76928711 C167.02053679 106.42452388 163.83463724 110.01359038 160.5859375 113.5625 C157.53505047 116.91572719 155.03090228 120.25922145 152.5859375 124.0625 C151.27539127 125.41823748 149.93845247 126.74862831 148.5859375 128.0625 C142.21881775 135.04633031 136.14582884 142.36136845 130.44140625 149.89453125 C129.82910156 150.60996094 129.21679688 151.32539063 128.5859375 152.0625 C127.9259375 152.0625 127.2659375 152.0625 126.5859375 152.0625 C126.3178125 152.64 126.0496875 153.2175 125.7734375 153.8125 C124.55664561 156.11800043 123.28259871 158.08306192 121.5859375 160.0625 C120.9259375 160.0625 120.2659375 160.0625 119.5859375 160.0625 C119.245625 161.1453125 119.245625 161.1453125 118.8984375 162.25 C117.30510307 165.66428807 115.31240154 167.45721214 112.5859375 170.0625 C106.4244964 176.16427477 106.4244964 176.16427477 103.5859375 184.0625 C105.94230615 188.88234496 109.78411957 192.60508169 113.3671875 196.5625 C116.53431623 200.13109575 119.52956937 203.83110407 122.53125 207.5390625 C124.20709459 209.59722906 125.91420156 211.61642165 127.6484375 213.625 C129.5859375 216.0625 129.5859375 216.0625 129.5859375 218.0625 C130.483125 218.4028125 130.483125 218.4028125 131.3984375 218.75 C134.17789486 220.41767441 134.98986388 222.26937116 136.5859375 225.0625 C137.89567748 226.4190164 139.23395892 227.74807638 140.5859375 229.0625 C144.55384828 233.41373375 148.3111907 237.93009618 152.0234375 242.5 C156.90554733 248.49659487 161.86577287 254.40278347 167.3984375 259.8125 C169.61174777 262.0890477 170.98046534 264.34017765 172.5859375 267.0625 C173.91641879 268.39867929 175.25020825 269.7315669 176.5859375 271.0625 C178.02677931 272.75049351 179.4432629 274.45955189 180.8359375 276.1875 C181.89554688 277.49074219 181.89554688 277.49074219 182.9765625 278.8203125 C184.5859375 281.0625 184.5859375 281.0625 184.5859375 283.0625 C185.2046875 283.35125 185.8234375 283.64 186.4609375 283.9375 C188.5859375 285.0625 188.5859375 285.0625 190.5859375 287.0625 C190.5859375 288.0525 190.5859375 289.0425 190.5859375 290.0625 C191.15570312 290.28550781 191.72546875 290.50851562 192.3125 290.73828125 C195.26266727 292.45667765 196.85382475 294.56990045 198.9609375 297.25 C201.62699258 300.60790739 204.30117399 303.91929239 207.1484375 307.125 C209.5859375 310.0625 209.5859375 310.0625 209.5859375 312.0625 C210.5759375 312.3925 211.5659375 312.7225 212.5859375 313.0625 C213.592365 314.72529327 214.59179157 316.39233484 215.5859375 318.0625 C216.91442441 319.06892948 218.24744079 320.06942179 219.5859375 321.0625 C220.25260417 322.39583333 220.91927083 323.72916667 221.5859375 325.0625 C223.24823928 326.73352015 224.91573603 328.39937565 226.5859375 330.0625 C228.38090856 332.10967925 230.15111436 334.1633787 231.8984375 336.25 C232.37627686 336.81807373 232.85411621 337.38614746 233.34643555 337.97143555 C238.67774524 344.33098377 243.90528348 350.76082884 248.8359375 357.4375 C250.89879372 360.22347701 253.08634906 362.65218258 255.5859375 365.0625 C257.5859375 368.0625 257.5859375 368.0625 257.5859375 371.0625 C240.40335383 372.14007671 223.28991933 372.08391793 206.0859375 371.75 C205.06685303 371.73284943 204.04776855 371.71569885 202.99780273 371.69802856 C192.64474605 371.51659846 182.34754584 371.19222475 172.04296875 370.12890625 C171.2842749 370.05097336 170.52558105 369.97304047 169.74389648 369.89274597 C147.58124777 367.3715195 129.21456818 356.23455215 113.5859375 341.0625 C112.83054687 340.34707031 112.07515625 339.63164062 111.296875 338.89453125 C106.84691892 334.59527089 103.00465801 329.94042091 99.13671875 325.1171875 C96.23737741 321.64508195 93.18750282 318.35312506 90.0859375 315.0625 C85.34279774 310.02923051 80.87166277 304.89733536 76.5859375 299.46484375 C74.55794808 296.93533553 74.55794808 296.93533553 71.8359375 294.44140625 C69.5859375 292.0625 69.5859375 292.0625 69.5859375 289.0625 C69.02519531 288.83820313 68.46445312 288.61390625 67.88671875 288.3828125 C64.90087922 286.66937657 63.05239713 284.51433939 60.7734375 281.9375 C60.33547852 281.44540039 59.89751953 280.95330078 59.44628906 280.44628906 C58.15336946 278.99045212 56.86949949 277.52659389 55.5859375 276.0625 C54.92722656 275.31742187 54.26851562 274.57234375 53.58984375 273.8046875 C51.36515528 271.27775851 49.15329439 268.74444622 47 266.15625 C44.10515695 262.68831619 41.25320266 259.7590185 37.5859375 257.0625 C34.63863693 259.25192328 32.17713527 261.45056411 29.8984375 264.3125 C29.1353125 265.22 28.3721875 266.1275 27.5859375 267.0625 C26.9259375 267.0625 26.2659375 267.0625 25.5859375 267.0625 C25.18375 267.92875 25.18375 267.92875 24.7734375 268.8125 C23.55664561 271.11800043 22.28259871 273.08306192 20.5859375 275.0625 C19.9259375 275.0625 19.2659375 275.0625 18.5859375 275.0625 C18.2146875 276.238125 18.2146875 276.238125 17.8359375 277.4375 C16.5859375 280.0625 16.5859375 280.0625 14.5859375 281 C12.26564881 281.94811662 12.26564881 281.94811662 11.5234375 284.9375 C11.059375 286.484375 11.059375 286.484375 10.5859375 288.0625 C10.12058594 288.59746094 9.65523437 289.13242187 9.17578125 289.68359375 C6.79402166 293.24745515 6.16963938 297.10984292 5.2109375 301.25 C3.701717 307.39695948 2.19915526 312.91522851 -1.30078125 318.2734375 C-2.50615497 320.07564644 -2.50615497 320.07564644 -3.25 322.3359375 C-4.82230346 326.01871541 -7.02161108 329.07141318 -9.3515625 332.3125 C-9.79435547 332.94929688 -10.23714844 333.58609375 -10.69335938 334.2421875 C-14.04687136 338.94010295 -14.04687136 338.94010295 -17.4140625 340.0625 C-17.7028125 340.660625 -17.9915625 341.25875 -18.2890625 341.875 C-19.7832988 344.78045946 -21.8320942 346.08098945 -24.4140625 348.0625 C-25.18492187 348.85011719 -25.95578125 349.63773437 -26.75 350.44921875 C-40.53385145 363.97032816 -60.58036406 371.17334587 -79.67089844 371.08813477 C-80.74756775 371.08443375 -81.82423706 371.08073273 -82.93353271 371.07691956 C-83.75210754 371.0721611 -84.57068237 371.06740265 -85.4140625 371.0625 C-85.45997121 336.43765349 -85.49514803 301.81281401 -85.51619316 267.18794358 C-85.51869418 263.08802353 -85.52128286 258.98810355 -85.52392578 254.88818359 C-85.5244504 254.07205998 -85.52497502 253.25593637 -85.52551554 252.41508174 C-85.5341872 239.24927174 -85.54993906 226.08347945 -85.56836809 212.91767991 C-85.58715776 199.38001656 -85.59819826 185.8423624 -85.60223949 172.30468655 C-85.60496587 163.97018553 -85.61353506 155.63573456 -85.62989543 147.30124897 C-85.64057463 141.56410741 -85.64363879 135.82699122 -85.64106525 130.08984047 C-85.63980069 126.79373023 -85.64269579 123.49777553 -85.65247345 120.20166969 C-85.69578347 104.8316098 -85.16401534 89.68157177 -83.64238334 74.38270569 C-83.44444147 72.37121229 -83.27008032 70.35742502 -83.10000801 68.34338379 C-81.7534533 53.609962 -70.11459007 36.74392971 -59.4140625 27.0625 C-58.35445313 26.04929687 -58.35445313 26.04929687 -57.2734375 25.015625 C-41.50246254 10.23653526 -21.85219409 -0.22801527 0 0 Z " fill="#8132C4" transform="translate(536.4140625,7.9375)"/>
<path d="M0 0 C0.82862549 0.00451172 1.65725098 0.00902344 2.51098633 0.01367188 C4.53600178 0.02535185 6.56097955 0.04328332 8.5859375 0.0625 C8.6013987 1.39479897 8.6013987 1.39479897 8.61717224 2.75401306 C9.23694834 56.73376113 9.23694834 56.73376113 10.02664185 110.71121216 C10.06606782 113.14728291 10.10389781 115.58338003 10.1401062 118.01950073 C10.19033301 121.36335678 10.24655388 124.70705461 10.3046875 128.05078125 C10.31822769 129.0198642 10.33176788 129.98894714 10.34571838 130.98739624 C10.36247116 131.86980988 10.37922394 132.75222351 10.39648438 133.66137695 C10.40901245 134.42078079 10.42154053 135.18018463 10.43444824 135.96260071 C10.58848121 138.0977601 11.00398348 140.0061424 11.5859375 142.0625 C12.0396875 141.5675 12.4934375 141.0725 12.9609375 140.5625 C14.5859375 139.0625 14.5859375 139.0625 16.5859375 139.0625 C16.5859375 138.4025 16.5859375 137.7425 16.5859375 137.0625 C17.2459375 137.0625 17.9059375 137.0625 18.5859375 137.0625 C18.8128125 136.32 19.0396875 135.5775 19.2734375 134.8125 C20.87172326 131.46371079 22.66003191 130.33820435 25.5859375 128.0625 C27.40802156 126.08614338 29.1486319 124.05160828 30.89453125 122.0078125 C33.01073128 119.5739381 35.30587093 117.34256657 37.5859375 115.0625 C39.61985636 112.75739196 41.61063032 110.41793502 43.5859375 108.0625 C43.5859375 110.0625 43.5859375 112.0625 43.5859375 114.0625 C44.2459375 113.7325 44.9059375 113.4025 45.5859375 113.0625 C44.2351765 117.11478301 41.74774048 118.60818797 38.49609375 121.24609375 C36.54093163 123.10529699 35.75821526 124.67361464 34.5859375 127.0625 C33.6165625 127.68125 32.6471875 128.3 31.6484375 128.9375 C27.39098676 131.8916495 26.08346417 134.98193393 24.8984375 139.9375 C24.7953125 140.63875 24.6921875 141.34 24.5859375 142.0625 C25.2459375 142.0625 25.9059375 142.0625 26.5859375 142.0625 C26.42222656 142.97999023 26.25851562 143.89748047 26.08984375 144.84277344 C25.34696755 150.075334 25.48168286 155.30416998 25.5234375 160.578125 C25.52722412 161.67090759 25.53101074 162.76369019 25.53491211 163.8895874 C25.54708253 167.36393257 25.56572125 170.83819291 25.5859375 174.3125 C25.61247546 178.90103931 25.63248163 183.48953809 25.6484375 188.078125 C25.66088501 189.66249359 25.66088501 189.66249359 25.67358398 191.27886963 C25.67688721 192.25708679 25.68019043 193.23530396 25.68359375 194.24316406 C25.68883057 195.10363342 25.69406738 195.96410278 25.69946289 196.85064697 C25.5859375 199.0625 25.5859375 199.0625 24.5859375 202.0625 C25.2459375 202.0625 25.9059375 202.0625 26.5859375 202.0625 C26.80875624 203.97753674 27.01364826 205.89466506 27.2109375 207.8125 C27.32695313 208.87984375 27.44296875 209.9471875 27.5625 211.046875 C27.5859375 214.0625 27.5859375 214.0625 26.59741211 215.70214844 C25.0465895 219.32110885 25.3622733 222.97520583 25.42578125 226.84375 C25.43098282 227.69424927 25.43618439 228.54474854 25.44154358 229.42102051 C25.45933169 232.13502202 25.49049418 234.84864344 25.5234375 237.5625 C25.55109028 240.2763195 25.57580524 242.99008394 25.59461975 245.70397949 C25.60683719 247.39128471 25.62440182 249.07856172 25.64793396 250.76574707 C25.67867731 254.37909854 25.56773489 257.58708314 24.5859375 261.0625 C25.9059375 260.7325 27.2259375 260.4025 28.5859375 260.0625 C28.9159375 261.7125 29.2459375 263.3625 29.5859375 265.0625 C28.6578125 265.43375 28.6578125 265.43375 27.7109375 265.8125 C25.16454716 267.31037667 24.75910333 268.40332412 23.5859375 271.0625 C22.0859375 273.3125 22.0859375 273.3125 20.5859375 275.0625 C19.9259375 275.0625 19.2659375 275.0625 18.5859375 275.0625 C18.2146875 276.238125 18.2146875 276.238125 17.8359375 277.4375 C16.5859375 280.0625 16.5859375 280.0625 14.5859375 281 C12.26564881 281.94811662 12.26564881 281.94811662 11.5234375 284.9375 C11.059375 286.484375 11.059375 286.484375 10.5859375 288.0625 C10.12058594 288.59746094 9.65523437 289.13242187 9.17578125 289.68359375 C6.79402166 293.24745515 6.16963938 297.10984292 5.2109375 301.25 C3.701717 307.39695948 2.19915526 312.91522851 -1.30078125 318.2734375 C-2.50615497 320.07564644 -2.50615497 320.07564644 -3.25 322.3359375 C-4.82230346 326.01871541 -7.02161108 329.07141318 -9.3515625 332.3125 C-9.79435547 332.94929688 -10.23714844 333.58609375 -10.69335938 334.2421875 C-14.04687136 338.94010295 -14.04687136 338.94010295 -17.4140625 340.0625 C-17.7028125 340.660625 -17.9915625 341.25875 -18.2890625 341.875 C-19.7832988 344.78045946 -21.8320942 346.08098945 -24.4140625 348.0625 C-25.18492187 348.85011719 -25.95578125 349.63773437 -26.75 350.44921875 C-40.53385145 363.97032816 -60.58036406 371.17334587 -79.67089844 371.08813477 C-80.74756775 371.08443375 -81.82423706 371.08073273 -82.93353271 371.07691956 C-83.75210754 371.0721611 -84.57068237 371.06740265 -85.4140625 371.0625 C-85.45997121 336.43765349 -85.49514803 301.81281401 -85.51619316 267.18794358 C-85.51869418 263.08802353 -85.52128286 258.98810355 -85.52392578 254.88818359 C-85.5244504 254.07205998 -85.52497502 253.25593637 -85.52551554 252.41508174 C-85.5341872 239.24927174 -85.54993906 226.08347945 -85.56836809 212.91767991 C-85.58715776 199.38001656 -85.59819826 185.8423624 -85.60223949 172.30468655 C-85.60496587 163.97018553 -85.61353506 155.63573456 -85.62989543 147.30124897 C-85.64057463 141.56410741 -85.64363879 135.82699122 -85.64106525 130.08984047 C-85.63980069 126.79373023 -85.64269579 123.49777553 -85.65247345 120.20166969 C-85.69578347 104.8316098 -85.16401534 89.68157177 -83.64238334 74.38270569 C-83.44444147 72.37121229 -83.27008032 70.35742502 -83.10000801 68.34338379 C-81.7534533 53.609962 -70.11459007 36.74392971 -59.4140625 27.0625 C-58.35445313 26.04929687 -58.35445313 26.04929687 -57.2734375 25.015625 C-41.50246254 10.23653526 -21.85219409 -0.22801527 0 0 Z " fill="#0F62D7" transform="translate(536.4140625,7.9375)"/>
<path d="M0 0 C4.07959752 1.13322153 5.62724653 2.59972026 7.7890625 6.1796875 C9.24723128 8.37164445 10.9189926 10.23724876 12.6875 12.1875 C16.59216945 16.50011999 20.28528254 20.95534902 23.9453125 25.4765625 C25.62115709 27.53472906 27.32826406 29.55392165 29.0625 31.5625 C31 34 31 34 31 36 C31.598125 36.226875 32.19625 36.45375 32.8125 36.6875 C35.59195736 38.35517441 36.40392638 40.20687116 38 43 C39.30973998 44.3565164 40.64802142 45.68557638 42 47 C45.96791078 51.35123375 49.7252532 55.86759618 53.4375 60.4375 C58.31960983 66.43409487 63.27983537 72.34028347 68.8125 77.75 C71.02581027 80.0265477 72.39452784 82.27767765 74 85 C75.33048129 86.33617929 76.66427075 87.6690669 78 89 C79.44084181 90.68799351 80.8573254 92.39705189 82.25 94.125 C82.95640625 94.99382812 83.6628125 95.86265625 84.390625 96.7578125 C86 99 86 99 86 101 C86.61875 101.28875 87.2375 101.5775 87.875 101.875 C90 103 90 103 92 105 C92 105.99 92 106.98 92 108 C92.56976562 108.22300781 93.13953125 108.44601562 93.7265625 108.67578125 C96.67672977 110.39417765 98.26788725 112.50740045 100.375 115.1875 C103.04105508 118.54540739 105.71523649 121.85679239 108.5625 125.0625 C111 128 111 128 111 130 C111.99 130.33 112.98 130.66 114 131 C115.0064275 132.66279327 116.00585407 134.32983484 117 136 C118.32848691 137.00642948 119.66150329 138.00692179 121 139 C121.66666667 140.33333333 122.33333333 141.66666667 123 143 C124.66230178 144.67102015 126.32979853 146.33687565 128 148 C129.79497106 150.04717925 131.56517686 152.1008787 133.3125 154.1875 C133.79033936 154.75557373 134.26817871 155.32364746 134.76049805 155.90893555 C140.09180774 162.26848377 145.31934598 168.69832884 150.25 175.375 C152.31285622 178.16097701 154.50041156 180.58968258 157 183 C159 186 159 186 159 189 C141.81741633 190.07757671 124.70398183 190.02141793 107.5 189.6875 C105.97137329 189.66177414 105.97137329 189.66177414 104.41186523 189.63552856 C94.05880855 189.45409846 83.76160834 189.12972475 73.45703125 188.06640625 C72.31899048 187.94950691 72.31899048 187.94950691 71.15795898 187.83024597 C48.99531027 185.3090195 30.62863068 174.17205215 15 159 C13.86691406 157.92685547 13.86691406 157.92685547 12.7109375 156.83203125 C8.26098142 152.53277089 4.41872051 147.87792091 0.55078125 143.0546875 C-2.34856009 139.58258195 -5.39843468 136.29062506 -8.5 133 C-13.24313976 127.96673051 -17.71427473 122.83483536 -22 117.40234375 C-24.02798942 114.87283553 -24.02798942 114.87283553 -26.75 112.37890625 C-29 110 -29 110 -29 107 C-29.56074219 106.77570313 -30.12148438 106.55140625 -30.69921875 106.3203125 C-33.68505828 104.60687657 -35.53354037 102.45183939 -37.8125 99.875 C-38.46943848 99.13685059 -38.46943848 99.13685059 -39.13964844 98.38378906 C-40.43256804 96.92795212 -41.71643801 95.46409389 -43 94 C-43.65871094 93.25492187 -44.31742188 92.50984375 -44.99609375 91.7421875 C-47.19910067 89.23988565 -49.39307233 86.73519589 -51.515625 84.1640625 C-54.99921875 79.96541529 -58.75630983 76.42759591 -63 73 C-63 73.66 -63 74.32 -63 75 C-63.66 74.67 -64.32 74.34 -65 74 C-63.61655012 70.77195029 -62.11284974 69.04564581 -59.375 66.875 C-54.1879035 62.50342507 -49.05864487 57.11728974 -46 51 C-45.34 51 -44.68 51 -44 51 C-44 50.34 -44 49.68 -44 49 C-42.125 46.875 -42.125 46.875 -40 45 C-39.34 45 -38.68 45 -38 45 C-37.7421875 44.42765625 -37.484375 43.8553125 -37.21875 43.265625 C-35.88634058 40.78871005 -34.34943882 38.8658834 -32.5 36.75 C-31.58734375 35.69039062 -31.58734375 35.69039062 -30.65625 34.609375 C-29 33 -29 33 -27 33 C-26.7834375 32.47921875 -26.566875 31.9584375 -26.34375 31.421875 C-24.45630531 28.02008516 -22.01414415 25.20590591 -19.5 22.25 C-19.00113281 21.64800781 -18.50226562 21.04601562 -17.98828125 20.42578125 C-16.70581757 18.90951723 -15.35739729 17.44956624 -14 16 C-13.34 16 -12.68 16 -12 16 C-12 15.34 -12 14.68 -12 14 C-11.34 14 -10.68 14 -10 14 C-9.773125 13.484375 -9.54625 12.96875 -9.3125 12.4375 C-7.51782382 9.10452995 -5.50034985 5.85296329 -3 3 C-2.34 3 -1.68 3 -1 3 C-0.67 2.01 -0.34 1.02 0 0 Z " fill="#801DA3" transform="translate(635,190)"/>
<path d="M0 0 C0 26.07 0 52.14 0 79 C-0.33 77.68 -0.66 76.36 -1 75 C-3.31 74.67 -5.62 74.34 -8 74 C-8 73.67 -8 73.34 -8 73 C-6.02 73 -4.04 73 -2 73 C-2 70.36 -2 67.72 -2 65 C-3.093125 64.71125 -4.18625 64.4225 -5.3125 64.125 C-9 63 -9 63 -12 61 C-13.65391846 60.60828247 -15.32345271 60.27942455 -17 60 C-17.77923828 59.83306641 -18.55847656 59.66613281 -19.36132812 59.49414062 C-31.42508424 57.23497682 -43.87635726 57.34908681 -54.34375 64.078125 C-55.2203125 64.71234375 -56.096875 65.3465625 -57 66 C-58.01964844 66.64710937 -59.03929687 67.29421875 -60.08984375 67.9609375 C-62.87072238 69.9094189 -64.86598801 71.80413381 -67.0625 74.375 C-67.73667969 75.16261719 -68.41085937 75.95023437 -69.10546875 76.76171875 C-70.04326172 77.86966797 -70.04326172 77.86966797 -71 79 C-71.76763672 79.84498047 -71.76763672 79.84498047 -72.55078125 80.70703125 C-75.4830702 83.985313 -76.72471119 86.83405657 -78 91 C-78.97214417 92.65264508 -79.94439078 94.30523042 -80.91796875 95.95703125 C-84.27877336 102.30252154 -86.24490841 108.79996998 -86.79296875 115.9375 C-87.19561617 119.94878 -88.40662275 123.69630253 -90.0703125 127.3515625 C-91.3989619 131.13653853 -90.99962309 134.51890601 -90.77734375 138.4765625 C-91.04422908 141.50126287 -91.82063294 142.03151633 -94 144 C-94.42688084 91.32232332 -94.42688084 91.32232332 -92.25146484 74.07568359 C-92.0277732 72.22925025 -91.87774785 70.37422883 -91.73828125 68.51953125 C-90.22160333 53.60881452 -78.88445922 36.84784406 -68 27 C-66.94039063 25.98679687 -66.94039063 25.98679687 -65.859375 24.953125 C-46.37843317 6.69739964 -26.58932052 0 0 0 Z " fill="#1CD6EF" transform="translate(545,8)"/>
<path d="M0 0 C6.6 0 13.2 0 20 0 C20.495 14.355 20.495 14.355 21 29 C26.65507879 23.414737 32.21500965 17.89828988 37.37109375 11.84765625 C39.63095497 9.28431247 42.05948776 6.91294199 44.51953125 4.54296875 C46.21835505 2.86292628 46.21835505 2.86292628 48 0 C50.52197266 -0.34057617 50.52197266 -0.34057617 53.6640625 -0.29296875 C54.78554688 -0.28330078 55.90703125 -0.27363281 57.0625 -0.26367188 C58.238125 -0.23853516 59.41375 -0.21339844 60.625 -0.1875 C61.80835938 -0.17396484 62.99171875 -0.16042969 64.2109375 -0.14648438 C67.14107539 -0.11103916 70.07031459 -0.06162769 73 0 C71.72494758 2.80428566 70.42022876 4.81604371 68.20703125 6.953125 C67.66264404 7.48591064 67.11825684 8.01869629 66.55737305 8.56762695 C65.69366089 9.40040161 65.69366089 9.40040161 64.8125 10.25 C60.5662274 14.41268228 56.48274773 18.60779853 52.6328125 23.14453125 C49.59514691 26.59642396 46.28818715 29.78867957 43 33 C44.32880833 36.65706225 45.9530091 39.61253794 48.203125 42.78125 C48.84765625 43.69632324 49.4921875 44.61139648 50.15625 45.55419922 C50.8471875 46.52631348 51.538125 47.49842773 52.25 48.5 C57.92356028 56.56644644 63.5275235 64.67056732 69 72.875 C69.60489258 73.77798828 70.20978516 74.68097656 70.83300781 75.61132812 C71.65816895 76.85172852 71.65816895 76.85172852 72.5 78.1171875 C72.9846875 78.84534668 73.469375 79.57350586 73.96875 80.32373047 C75 82 75 82 75 83 C53.80362682 84.78215038 53.80362682 84.78215038 47.9765625 81.078125 C45.93105588 78.16090458 44.49645649 75.23308501 43 72 C41.35176252 69.36076402 39.57710413 66.81235891 37.8125 64.25 C37.00433835 63.02747476 36.19828882 61.80355022 35.39453125 60.578125 C33.73046969 58.05467917 31.98929987 55.60734238 30.19921875 53.171875 C28 50 28 50 28 48 C25.02141202 49.56961928 22.96443442 51.25014693 21 54 C19.96826818 58.93880643 20.01843838 63.85076853 20.0625 68.875 C20.04937845 70.24482552 20.03313227 71.61462487 20.01367188 72.984375 C19.97840752 76.32273353 19.98511492 79.66148841 20 83 C13.4 83 6.8 83 0 83 C0 55.61 0 28.22 0 0 Z " fill="#000000" transform="translate(458,443)"/>
<path d="M0 0 C2.6953125 1.59765625 2.6953125 1.59765625 4.6953125 3.59765625 C5.0253125 2.27765625 5.3553125 0.95765625 5.6953125 -0.40234375 C11.6353125 -0.40234375 17.5753125 -0.40234375 23.6953125 -0.40234375 C23.78594467 7.67367945 23.8592179 15.74930242 23.90256119 23.82569885 C23.92337147 27.57653814 23.95156717 31.32700927 23.99707031 35.07763672 C24.040765 38.70218487 24.06449886 42.32638052 24.07482147 45.95117188 C24.08217082 47.32899519 24.09652196 48.7068008 24.11823273 50.08447266 C24.26342956 59.68627669 23.59259736 65.69821243 17.5078125 73.34765625 C8.67275107 80.4157054 -1.33454252 81.29814441 -12.3046875 80.59765625 C-20.11602565 79.2512152 -26.45566923 77.06267848 -31.6171875 70.78515625 C-33.46579537 67.29334138 -33.83954796 64.48917018 -34.3046875 60.59765625 C-31.20083539 60.48152421 -28.09754088 60.41043596 -24.9921875 60.34765625 C-24.11111328 60.31414063 -23.23003906 60.280625 -22.32226562 60.24609375 C-19.92037141 60.20956304 -17.67658758 60.21251034 -15.3046875 60.59765625 C-13.47265625 62.55859375 -13.47265625 62.55859375 -12.3046875 64.59765625 C-8.37820375 65.8770723 -4.43628681 65.8436561 -0.4296875 64.97265625 C2.38292783 63.15272868 3.39029496 61.68848728 4.6953125 58.59765625 C4.94631117 54.88871717 4.94631117 54.88871717 4.6953125 51.59765625 C3.7878125 52.23703125 2.8803125 52.87640625 1.9453125 53.53515625 C-3.3111196 56.87096893 -8.18513006 57.15306163 -14.3046875 56.59765625 C-17.16845985 55.92662472 -19.67763993 54.91118003 -22.3046875 53.59765625 C-22.913125 53.30375 -23.5215625 53.00984375 -24.1484375 52.70703125 C-30.26682188 49.11113868 -33.26366565 43.21835611 -35.3046875 36.59765625 C-36.90946615 26.22945499 -35.78971567 16.44462232 -29.984375 7.58203125 C-22.835657 -1.71520856 -10.93940674 -4.64213596 0 0 Z M-13.3046875 15.59765625 C-16.83622585 20.20626202 -18.04021968 24.81847485 -17.3046875 30.59765625 C-15.66926072 35.67608677 -14.0413782 38.96616142 -9.3046875 41.59765625 C-4.29508742 42.3133134 -2.36014983 42.18402421 2.0703125 39.72265625 C5.78513274 36.1197895 6.59822435 31.6313035 6.6953125 26.59765625 C5.95750231 22.17079511 4.51206971 18.72421792 1.8828125 15.09765625 C-3.47302463 11.42508222 -7.94045986 12.31951714 -13.3046875 15.59765625 Z " fill="#000000" transform="translate(633.3046875,466.40234375)"/>
<path d="M0 0 C4.07959752 1.13322153 5.62724653 2.59972026 7.7890625 6.1796875 C9.24723128 8.37164445 10.9189926 10.23724876 12.6875 12.1875 C16.59216945 16.50011999 20.28528254 20.95534902 23.9453125 25.4765625 C25.62115709 27.53472906 27.32826406 29.55392165 29.0625 31.5625 C31 34 31 34 31 36 C31.598125 36.226875 32.19625 36.45375 32.8125 36.6875 C35.57839575 38.34703745 36.46274117 40.20498395 38 43 C38.66 43.66 39.32 44.32 40 45 C38.88625 44.979375 37.7725 44.95875 36.625 44.9375 C30.23107471 45.69841118 26.32725676 50.62820886 22 55 C21.42378906 55.56332031 20.84757813 56.12664062 20.25390625 56.70703125 C19.15342857 57.78880392 18.07313311 58.89109579 17 60 C17.50537483 54.10396032 21.10677351 51.61415793 25.33203125 48.01171875 C26.15058594 47.30660156 26.96914063 46.60148437 27.8125 45.875 C28.60269531 45.21242187 29.39289063 44.54984375 30.20703125 43.8671875 C32.34631303 42.0707938 32.34631303 42.0707938 32 39 C31.01 39.495 31.01 39.495 30 40 C30 38.68 30 37.36 30 36 C29.34 36 28.68 36 28 36 C27.505 34.02 27.505 34.02 27 32 C26.34 32 25.68 32 25 32 C25 31.34 25 30.68 25 30 C23.68 29.67 22.36 29.34 21 29 C21 27.68 21 26.36 21 25 C16.42854162 25.4793963 14.482226 27.04201173 11.3125 30.296875 C10.44882812 31.1734375 9.58515625 32.05 8.6953125 32.953125 C7.80585937 33.87609375 6.91640625 34.7990625 6 35.75 C4.66582031 37.11125 4.66582031 37.11125 3.3046875 38.5 C1.63989833 40.19957581 -0.02073986 41.90323509 -1.67578125 43.61230469 C-3.31248047 45.29370368 -4.9650776 46.95970012 -6.62890625 48.61425781 C-10.73289291 52.74359859 -14.04867537 57.00213639 -17 62 C-19.05152001 65.28243201 -21.10312948 68.56476505 -23.16015625 71.84375 C-28.95670733 81.78772722 -29.38268135 92.72581195 -30 104 C-29.01 104.495 -29.01 104.495 -28 105 C-28 105.66 -28 106.32 -28 107 C-27.34 107 -26.68 107 -26 107 C-25.34 108.98 -24.68 110.96 -24 113 C-23.34 113 -22.68 113 -22 113 C-21.67 113.99 -21.34 114.98 -21 116 C-24.36295835 114.55873214 -26.62927102 112.79407345 -29 110 C-29 109.01 -29 108.02 -29 107 C-29.56074219 106.77570313 -30.12148438 106.55140625 -30.69921875 106.3203125 C-33.68505828 104.60687657 -35.53354037 102.45183939 -37.8125 99.875 C-38.46943848 99.13685059 -38.46943848 99.13685059 -39.13964844 98.38378906 C-40.43256804 96.92795212 -41.71643801 95.46409389 -43 94 C-43.65871094 93.25492187 -44.31742188 92.50984375 -44.99609375 91.7421875 C-47.19910067 89.23988565 -49.39307233 86.73519589 -51.515625 84.1640625 C-54.99921875 79.96541529 -58.75630983 76.42759591 -63 73 C-63 73.66 -63 74.32 -63 75 C-63.66 74.67 -64.32 74.34 -65 74 C-63.61655012 70.77195029 -62.11284974 69.04564581 -59.375 66.875 C-54.1879035 62.50342507 -49.05864487 57.11728974 -46 51 C-45.34 51 -44.68 51 -44 51 C-44 50.34 -44 49.68 -44 49 C-42.125 46.875 -42.125 46.875 -40 45 C-39.34 45 -38.68 45 -38 45 C-37.7421875 44.42765625 -37.484375 43.8553125 -37.21875 43.265625 C-35.88634058 40.78871005 -34.34943882 38.8658834 -32.5 36.75 C-31.58734375 35.69039062 -31.58734375 35.69039062 -30.65625 34.609375 C-29 33 -29 33 -27 33 C-26.7834375 32.47921875 -26.566875 31.9584375 -26.34375 31.421875 C-24.45630531 28.02008516 -22.01414415 25.20590591 -19.5 22.25 C-19.00113281 21.64800781 -18.50226562 21.04601562 -17.98828125 20.42578125 C-16.70581757 18.90951723 -15.35739729 17.44956624 -14 16 C-13.34 16 -12.68 16 -12 16 C-12 15.34 -12 14.68 -12 14 C-11.34 14 -10.68 14 -10 14 C-9.773125 13.484375 -9.54625 12.96875 -9.3125 12.4375 C-7.51782382 9.10452995 -5.50034985 5.85296329 -3 3 C-2.34 3 -1.68 3 -1 3 C-0.67 2.01 -0.34 1.02 0 0 Z " fill="#200950" transform="translate(635,190)"/>
<path d="M0 0 C0.7734375 -0.020625 1.546875 -0.04125 2.34375 -0.0625 C9.1656953 -0.10828487 14.71042211 1.10546756 20.0625 5.625 C25.96280547 12.70536656 26.37806835 19.11975421 26.53125 28.0078125 C26.55886414 29.24602249 26.55886414 29.24602249 26.58703613 30.50924683 C26.6652594 34.02020081 26.73347563 37.53133053 26.80224609 41.04248047 C26.85407339 43.61435076 26.91126248 46.18606351 26.96875 48.7578125 C26.98232544 49.54954865 26.99590088 50.34128479 27.0098877 51.15701294 C27.09055447 54.7331265 27.37688528 57.75754111 28.25 61.25 C21.98 61.25 15.71 61.25 9.25 61.25 C8.59 59.93 7.93 58.61 7.25 57.25 C6.528125 57.86875 5.80625 58.4875 5.0625 59.125 C-1.40274381 64.00985088 -7.8897535 64.00346742 -15.75 63.25 C-21.49178624 61.71719992 -25.56894914 59.41920766 -28.75 54.25 C-30.57069999 48.78790003 -30.97849479 41.64268249 -28.99609375 36.16796875 C-26.00270441 31.53114997 -22.11427638 29.08768759 -16.875 27.75 C-15.91851563 27.50378906 -14.96203125 27.25757813 -13.9765625 27.00390625 C-9.24476151 25.89829173 -4.48724374 24.92974794 0.28125 23.99609375 C3.40830856 23.38652837 3.40830856 23.38652837 6.25 21.25 C6.5002157 18.16634129 6.5002157 18.16634129 6.25 15.25 C2.0933451 13.86444837 -1.72687288 14.14064178 -6.0625 14.375 C-8.58559115 15.43466402 -8.58559115 15.43466402 -9.75 21.25 C-15.36 21.25 -20.97 21.25 -26.75 21.25 C-28.19425415 16.91723754 -26.63757505 14.26109699 -24.75 10.25 C-21.52337002 4.99178818 -16.71465002 2.38748436 -10.87792969 0.71289062 C-7.27392826 -0.07109133 -3.67552594 0.02402305 0 0 Z M-1.1875 36 C-2.32058594 36.32484375 -3.45367188 36.6496875 -4.62109375 36.984375 C-7.90157725 38.31131215 -9.59472661 39.46456068 -11.75 42.25 C-11.92110449 45.3903994 -11.92110449 45.3903994 -10.75 48.25 C-7.07651887 50.68559033 -4.16345239 50.44059563 0.05859375 49.86328125 C3.47291133 48.90775922 5.14383225 47.01434517 7.25 44.25 C8.4077506 40.77674819 8.31866652 37.88932552 8.25 34.25 C4.79095561 34.25 2.13005402 35.02092617 -1.1875 36 Z " fill="#000000" transform="translate(761.75,464.75)"/>
<path d="M0 0 C6.74191531 4.0076941 11.31716522 8.82965854 14.109375 16.25390625 C16.78813069 27.0454649 16.87302817 36.68720878 11.484375 46.56640625 C7.41684144 52.78617845 1.77310437 57.42467146 -5.3671875 59.78125 C-14.95494799 61.57709987 -25.39822448 61.42848721 -33.890625 56.25390625 C-41.52889224 50.87784359 -45.83915797 44.82006372 -47.57421875 35.56640625 C-48.84925825 26.24759904 -47.6984958 16.84925153 -42.265625 8.94140625 C-32.18795468 -3.26711476 -14.2389218 -6.85666201 0 0 Z M-25.890625 16.25390625 C-29.25958237 23.05538623 -29.79163752 29.57078965 -27.765625 36.87890625 C-26.04994146 41.56897573 -24.19135385 43.69001021 -19.890625 46.25390625 C-16.0904249 46.78726767 -13.76104527 46.59802589 -10.203125 45.19140625 C-5.71094603 41.42768874 -4.13079994 38.45672291 -3.50390625 32.70703125 C-3.25291792 23.94840417 -3.73385619 18.85604314 -9.640625 12.31640625 C-15.89490111 9.36299809 -21.77561219 10.72876444 -25.890625 16.25390625 Z " fill="#000000" transform="translate(577.890625,467.74609375)"/>
<path d="M0 0 C5.95976297 3.77046229 9.25507427 8.10918459 11.0625 14.9375 C11.32831521 18.41652254 11.29557294 21.87978058 11.2578125 25.3671875 C11.2549826 26.35751984 11.25215271 27.34785217 11.24923706 28.36819458 C11.2380847 31.51642176 11.21298907 34.66435949 11.1875 37.8125 C11.17746382 39.95312088 11.16833908 42.09374624 11.16015625 44.234375 C11.13816153 49.46886072 11.10366563 54.70313136 11.0625 59.9375 C4.7925 59.9375 -1.4775 59.9375 -7.9375 59.9375 C-7.99808594 57.16859375 -8.05867187 54.3996875 -8.12109375 51.546875 C-8.18291651 48.86276611 -8.24629038 46.17869801 -8.30981445 43.49462891 C-8.35310433 41.63040808 -8.39478361 39.76614912 -8.43481445 37.90185547 C-8.49266113 35.2209118 -8.55631405 32.540159 -8.62109375 29.859375 C-8.63780624 29.02694275 -8.65451874 28.1945105 -8.67173767 27.33685303 C-8.7016555 26.16609222 -8.7016555 26.16609222 -8.73217773 24.97167969 C-8.75549416 23.94575714 -8.75549416 23.94575714 -8.77928162 22.89910889 C-8.95153637 20.76347552 -9.18730756 18.95052344 -9.9375 16.9375 C-13.63682361 15.70439213 -17.09862839 15.22545123 -20.9375 15.9375 C-25.84106172 20.71532937 -26.11687317 24.67515078 -26.25390625 31.2265625 C-26.27468735 32.04498627 -26.29546844 32.86341003 -26.31687927 33.70663452 C-26.38234812 36.32516966 -26.44124726 38.94380639 -26.5 41.5625 C-26.54318776 43.33594807 -26.58680214 45.10938581 -26.63085938 46.8828125 C-26.73883099 51.23427232 -26.83792378 55.58580747 -26.9375 59.9375 C-33.2075 59.9375 -39.4775 59.9375 -45.9375 59.9375 C-45.9375 40.1375 -45.9375 20.3375 -45.9375 -0.0625 C-39.9975 -0.0625 -34.0575 -0.0625 -27.9375 -0.0625 C-27.6075 1.9175 -27.2775 3.8975 -26.9375 5.9375 C-26.215625 5.15375 -25.49375 4.37 -24.75 3.5625 C-18.353452 -2.40761147 -8.13443773 -2.94805126 0 0 Z " fill="#000000" transform="translate(713.9375,466.0625)"/>
<path d="M0 0 C0 2 0 4 0 6 C0.66 5.67 1.32 5.34 2 5 C0.649239 9.05228301 -1.83819702 10.54568797 -5.08984375 13.18359375 C-7.04500587 15.04279699 -7.82772224 16.61111464 -9 19 C-9.969375 19.61875 -10.93875 20.2375 -11.9375 20.875 C-16.19495074 23.8291495 -17.50247333 26.91943393 -18.6875 31.875 C-18.8421875 32.926875 -18.8421875 32.926875 -19 34 C-18.34 34 -17.68 34 -17 34 C-17.16371094 34.91749023 -17.32742188 35.83498047 -17.49609375 36.78027344 C-18.23896995 42.012834 -18.10425464 47.24166998 -18.0625 52.515625 C-18.05871338 53.60840759 -18.05492676 54.70119019 -18.05102539 55.8270874 C-18.03885497 59.30143257 -18.02021625 62.77569291 -18 66.25 C-17.97346204 70.83853931 -17.95345587 75.42703809 -17.9375 80.015625 C-17.92920166 81.07187073 -17.92090332 82.12811646 -17.91235352 83.21636963 C-17.90739868 84.68369537 -17.90739868 84.68369537 -17.90234375 86.18066406 C-17.89448853 87.4713681 -17.89448853 87.4713681 -17.88647461 88.78814697 C-18 91 -18 91 -19 94 C-18.34 94 -17.68 94 -17 94 C-16.77718126 95.91503674 -16.57228924 97.83216506 -16.375 99.75 C-16.25898437 100.81734375 -16.14296875 101.8846875 -16.0234375 102.984375 C-16 106 -16 106 -16.98852539 107.63964844 C-18.539348 111.25860885 -18.2236642 114.91270583 -18.16015625 118.78125 C-18.15495468 119.63174927 -18.14975311 120.48224854 -18.14439392 121.35852051 C-18.12660581 124.07252202 -18.09544332 126.78614344 -18.0625 129.5 C-18.03484722 132.2138195 -18.01013226 134.92758394 -17.99131775 137.64147949 C-17.97910031 139.32878471 -17.96153568 141.01606172 -17.93800354 142.70324707 C-17.90726019 146.31659854 -18.01820261 149.52458314 -19 153 C-17.68 152.67 -16.36 152.34 -15 152 C-14.67 153.65 -14.34 155.3 -14 157 C-14.61875 157.2475 -15.2375 157.495 -15.875 157.75 C-18.42139034 159.24787667 -18.82683417 160.34082412 -20 163 C-21.5 165.25 -21.5 165.25 -23 167 C-23.66 167 -24.32 167 -25 167 C-25.2475 167.78375 -25.495 168.5675 -25.75 169.375 C-27.19494285 172.40937999 -28.05565819 172.67029725 -31 174 C-31.33 174.99 -31.66 175.98 -32 177 C-32.66 177 -33.32 177 -34 177 C-34 130.47 -34 83.94 -34 36 C-33.34 36 -32.68 36 -32 36 C-31.731875 35.360625 -31.46375 34.72125 -31.1875 34.0625 C-30 32 -30 32 -27 31 C-27 30.34 -27 29.68 -27 29 C-26.34 29 -25.68 29 -25 29 C-24.773125 28.2575 -24.54625 27.515 -24.3125 26.75 C-22.71421424 23.40121079 -20.92590559 22.27570435 -18 20 C-16.17791594 18.02364338 -14.4373056 15.98910828 -12.69140625 13.9453125 C-10.57520622 11.5114381 -8.28006657 9.28006657 -6 7 C-3.96608114 4.69489196 -1.97530718 2.35543502 0 0 Z " fill="#160E74" transform="translate(580,116)"/>
<path d="M0 0 C0.66 0 1.32 0 2 0 C2.33 47.19 2.66 94.38 3 143 C1.68 143 0.36 143 -1 143 C-1.495 122.21 -1.495 122.21 -2 101 C-2.33 101 -2.66 101 -3 101 C-3 96.38 -3 91.76 -3 87 C-2.01 87 -1.02 87 0 87 C-0.0721875 85.72640625 -0.144375 84.4528125 -0.21875 83.140625 C-1.03805325 66.74143947 -1.11253094 50.35415016 -1.125 33.9375 C-1.12749756 32.77827026 -1.12999512 31.61904053 -1.13256836 30.42468262 C-1.13850367 27.06303993 -1.13694676 23.70148765 -1.1328125 20.33984375 C-1.13479645 19.33120773 -1.1367804 18.32257172 -1.13882446 17.28337097 C-1.11983739 11.44263431 -0.75136093 5.79338823 0 0 Z " fill="#1336B5" transform="translate(544,152)"/>
<path d="M0 0 C2.41871268 2.41871268 2.25524318 2.99624793 2.2784729 6.30455017 C2.29521812 7.66054321 2.29521812 7.66054321 2.31230164 9.04393005 C2.31446182 10.03868851 2.31662201 11.03344696 2.31884766 12.05834961 C2.33391609 13.62699265 2.33391609 13.62699265 2.34928894 15.22732544 C2.38030026 18.70232582 2.39721666 22.17724811 2.4140625 25.65234375 C2.43277421 28.06694704 2.45234763 30.4815438 2.4727478 32.89613342 C2.52423466 39.27218728 2.56374636 45.6482627 2.60089111 52.02441406 C2.64065177 58.47792054 2.69198948 64.93133345 2.7421875 71.38476562 C2.81405996 80.84884152 2.8816248 90.31292987 2.93994141 99.77709961 C2.94615005 100.75363998 2.9523587 101.73018036 2.95875549 102.73631287 C2.99692117 109.15760954 3.00673978 115.57859692 3 122 C7.49410237 122.86425046 10.02936591 123.32761309 14 121 C15.32 121 16.64 121 18 121 C18 121.66 18 122.32 18 123 C11.60122272 125.84390101 7.87988758 125 0 125 C0 83.75 0 42.5 0 0 Z " fill="#074DCD" transform="translate(451,254)"/>
<path d="M0 0 C2.475 0.99 2.475 0.99 5 2 C5 2.99 5 3.98 5 5 C2.525 4.01 2.525 4.01 0 3 C-0.04125 3.66 -0.0825 4.32 -0.125 5 C-2.46091906 13.00886534 -10.16375519 20.30382507 -16 26 C-16.66 26 -17.32 26 -18 26 C-18.185625 26.680625 -18.37125 27.36125 -18.5625 28.0625 C-20.27590246 31.56380068 -22.45971302 33.63566714 -25.26953125 36.2890625 C-27.18293603 38.08506942 -27.18293603 38.08506942 -29.0625 40.875 C-31.55601349 43.60982125 -33.38378066 43.75343959 -37 44 C-37 44.99 -37 45.98 -37 47 C-38.8125 49.1875 -38.8125 49.1875 -41 51 C-41.99 51 -42.98 51 -44 51 C-44 49 -44 49 -42.125 46.875 C-40 45 -40 45 -38 45 C-37.7421875 44.42765625 -37.484375 43.8553125 -37.21875 43.265625 C-35.88634058 40.78871005 -34.34943882 38.8658834 -32.5 36.75 C-31.8915625 36.04359375 -31.283125 35.3371875 -30.65625 34.609375 C-29 33 -29 33 -27 33 C-26.7834375 32.47921875 -26.566875 31.9584375 -26.34375 31.421875 C-24.45630531 28.02008516 -22.01414415 25.20590591 -19.5 22.25 C-19.00113281 21.64800781 -18.50226562 21.04601562 -17.98828125 20.42578125 C-16.70581757 18.90951723 -15.35739729 17.44956624 -14 16 C-13.34 16 -12.68 16 -12 16 C-12 15.34 -12 14.68 -12 14 C-11.34 14 -10.68 14 -10 14 C-9.773125 13.484375 -9.54625 12.96875 -9.3125 12.4375 C-7.51782382 9.10452995 -5.50034985 5.85296329 -3 3 C-2.34 3 -1.68 3 -1 3 C-0.67 2.01 -0.34 1.02 0 0 Z " fill="#280F6A" transform="translate(635,190)"/>
<path d="M0 0 C1.65 0 3.3 0 5 0 C6.51447659 4.0697598 7.25742079 7.48167339 7.30297852 11.81835938 C7.31962051 12.9397229 7.33626251 14.06108643 7.35340881 15.21643066 C7.36182297 16.41344604 7.37023712 17.61046143 7.37890625 18.84375 C7.39590073 20.08620483 7.4128952 21.32865967 7.43040466 22.60876465 C7.47445758 25.90090902 7.51079885 29.19300862 7.54260254 32.48529053 C7.58838237 37.12070919 7.6444826 41.75598983 7.70530701 46.39123535 C7.73711326 48.85528653 7.76404937 51.31940658 7.78553772 53.78356934 C7.79902756 54.90493286 7.8125174 56.02629639 7.82641602 57.18164062 C7.83592789 58.1628186 7.84543976 59.14399658 7.85523987 60.15490723 C8.00840315 63.16515413 8.45052806 66.03853874 9 69 C7.68 69 6.36 69 5 69 C4.00778457 54.09439622 3.87927761 39.24709224 3.9375 24.3125 C3.94253081 22.03841246 3.94709089 19.76432382 3.95117188 17.49023438 C3.96203895 11.9934652 3.97864884 6.49673794 4 1 C2.68 0.67 1.36 0.34 0 0 Z " fill="#338FCB" transform="translate(539,83)"/>
<path d="M0 0 C0.66 0.33 1.32 0.66 2 1 C1.49210937 1.4846875 0.98421875 1.969375 0.4609375 2.46875 C-6.19698069 8.95211602 -11.56363251 15.13382184 -15.04296875 23.82421875 C-16 26 -16 26 -17.48046875 28.44140625 C-21.2484497 34.78595 -23.23092273 41.61783097 -23.79296875 48.9375 C-24.19561617 52.94878 -25.40662275 56.69630253 -27.0703125 60.3515625 C-28.3989619 64.13653853 -27.99962309 67.51890601 -27.77734375 71.4765625 C-28.04422908 74.50126287 -28.82063294 75.03151633 -31 77 C-31.08103404 74.08277452 -31.14051081 71.16780484 -31.1875 68.25 C-31.21263672 67.425 -31.23777344 66.6 -31.26367188 65.75 C-31.32037429 61.06260018 -31.22002166 58.61531843 -28 55 C-27.4689536 52.68381943 -27.4689536 52.68381943 -27.375 50.3125 C-27.08435852 46.08435852 -27.08435852 46.08435852 -26 45 C-25.63239269 42.67182036 -25.29758419 40.3381615 -25 38 C-24.34 38 -23.68 38 -23 38 C-22.87625 36.948125 -22.7525 35.89625 -22.625 34.8125 C-22.08053427 31.49125907 -21.35968733 29.03930108 -20 26 C-19.62875 25.071875 -19.2575 24.14375 -18.875 23.1875 C-18.58625 22.465625 -18.2975 21.74375 -18 21 C-17.34 21 -16.68 21 -16 21 C-15.7834375 20.071875 -15.7834375 20.071875 -15.5625 19.125 C-15 17 -15 17 -14 15 C-13.34 15 -12.68 15 -12 15 C-11.67 13.68 -11.34 12.36 -11 11 C-10.34 11 -9.68 11 -9 11 C-8.34 9.35 -7.68 7.7 -7 6 C-6.34 6 -5.68 6 -5 6 C-5 5.34 -5 4.68 -5 4 C-4.34 4 -3.68 4 -3 4 C-3 3.34 -3 2.68 -3 2 C-2.01 1.34 -1.02 0.68 0 0 Z " fill="#18C3EB" transform="translate(482,75)"/>
<path d="M0 0 C0 0.66 0 1.32 0 2 C-1.11375 2.515625 -2.2275 3.03125 -3.375 3.5625 C-27.28270891 15.55844549 -46.30461921 37.35313455 -56 62 C-56.33 62 -56.66 62 -57 62 C-57.54138058 56.32881651 -55.8241729 52.77579477 -53.1875 47.9375 C-52.78660156 47.19306641 -52.38570313 46.44863281 -51.97265625 45.68164062 C-44.05090655 31.50268065 -30.59672932 15.50688937 -16 8 C-15.34 8 -14.68 8 -14 8 C-14 7.34 -14 6.68 -14 6 C-12.04414675 4.99515796 -10.08523763 3.99626195 -8.125 3 C-7.03445313 2.443125 -5.94390625 1.88625 -4.8203125 1.3125 C-2 0 -2 0 0 0 Z " fill="#FDFDFD" transform="translate(505,7)"/>
<path d="M0 0 C-0.02761886 8.56184779 -1.3355052 14.84581766 -5.52734375 22.34375 C-7.03059199 24.89661547 -7.03059199 24.89661547 -7.8828125 27.390625 C-9.43826754 31.02364585 -11.63784345 34.05105496 -13.9375 37.25 C-14.38029297 37.88679688 -14.82308594 38.52359375 -15.27929688 39.1796875 C-18.63280886 43.87760295 -18.63280886 43.87760295 -22 45 C-22.28875 45.598125 -22.5775 46.19625 -22.875 46.8125 C-24.36084401 49.70164114 -26.42400767 51.06800575 -29 53 C-29.66 53.66 -30.32 54.32 -31 55 C-31.495 53.515 -31.495 53.515 -32 52 C-31.34 52 -30.68 52 -30 52 C-30 51.34 -30 50.68 -30 50 C-29.34 50 -28.68 50 -28 50 C-28 49.34 -28 48.68 -28 48 C-27.34 48 -26.68 48 -26 48 C-25.59974609 47.12214844 -25.59974609 47.12214844 -25.19140625 46.2265625 C-23.98062783 43.96379627 -22.6463301 42.28116429 -20.9375 40.375 C-19.33621517 38.5818742 -18.07671842 37.15343684 -17 35 C-16.34 35 -15.68 35 -15 35 C-14.34 31.37 -13.68 27.74 -13 24 C-11.68 23.67 -10.36 23.34 -9 23 C-7.0549 20.08235 -6.54723683 18.37462715 -6 15 C-5.34 15 -4.68 15 -4 15 C-4.05220703 13.62714844 -4.05220703 13.62714844 -4.10546875 12.2265625 C-4.13253906 11.03804688 -4.15960937 9.84953125 -4.1875 8.625 C-4.22230469 7.44164062 -4.25710938 6.25828125 -4.29296875 5.0390625 C-4.19628906 4.03617187 -4.09960938 3.03328125 -4 2 C-1 0 -1 0 0 0 Z " fill="#1324C8" transform="translate(541,303)"/>
<path d="M0 0 C0 2 0 4 0 6 C0.66 5.67 1.32 5.34 2 5 C0.649239 9.05228301 -1.83819702 10.54568797 -5.08984375 13.18359375 C-7.04268983 15.04059462 -7.85046608 16.60140542 -9 19 C-10.34645183 19.90885499 -11.6996256 20.80943879 -13.0859375 21.65625 C-16.56869499 24.10128791 -19.55558792 27.14558289 -22.6328125 30.07421875 C-24.89091942 31.91125953 -26.16273981 32.61428951 -29 33 C-29 33.66 -29 34.32 -29 35 C-29.66 35 -30.32 35 -31 35 C-31 35.66 -31 36.32 -31 37 C-31.99 36.67 -32.98 36.34 -34 36 C-33.34 36 -32.68 36 -32 36 C-31.731875 35.360625 -31.46375 34.72125 -31.1875 34.0625 C-30 32 -30 32 -27 31 C-27 30.34 -27 29.68 -27 29 C-26.34 29 -25.68 29 -25 29 C-24.773125 28.2575 -24.54625 27.515 -24.3125 26.75 C-22.71421424 23.40121079 -20.92590559 22.27570435 -18 20 C-16.17791594 18.02364338 -14.4373056 15.98910828 -12.69140625 13.9453125 C-10.57520622 11.5114381 -8.28006657 9.28006657 -6 7 C-3.96608114 4.69489196 -1.97530718 2.35543502 0 0 Z " fill="#351F9F" transform="translate(580,116)"/>
<path d="M0 0 C0.33 0 0.66 0 1 0 C1 26.07 1 52.14 1 79 C0.67 77.68 0.34 76.36 0 75 C-2.31 74.67 -4.62 74.34 -7 74 C-7 73.67 -7 73.34 -7 73 C-5.02 73 -3.04 73 -1 73 C-1.0721875 71.80246094 -1.144375 70.60492188 -1.21875 69.37109375 C-1.31272249 67.7265752 -1.4064595 66.08204318 -1.5 64.4375 C-1.57154297 63.26670898 -1.57154297 63.26670898 -1.64453125 62.07226562 C-2.45582569 47.52691526 -1.79957649 33.08769243 -1 18.5625 C-0.90328275 16.75197248 -0.80692641 14.94142565 -0.7109375 13.13085938 C-0.47810545 8.7536731 -0.24043646 4.37677488 0 0 Z " fill="#2BCBEA" transform="translate(544,8)"/>
<path d="M0 0 C2.50484575 2.50484575 2.29248418 3.42034334 2.4140625 6.890625 C2.45281494 7.90068604 2.49156738 8.91074707 2.53149414 9.95141602 C2.56235107 11.03994873 2.59320801 12.12848145 2.625 13.25 C2.66294678 14.35851318 2.70089355 15.46702637 2.73999023 16.60913086 C3.07852766 27.40624851 3.09653292 38.1990391 3 49 C8.76555402 50.04681998 8.76555402 50.04681998 14 48 C15.32 48 16.64 48 18 48 C18 48.66 18 49.32 18 50 C11.60122272 52.84390101 7.87988758 52 0 52 C0 34.84 0 17.68 0 0 Z " fill="#082BC4" transform="translate(451,327)"/>
<path d="M0 0 C-0.96099609 0.52787109 -0.96099609 0.52787109 -1.94140625 1.06640625 C-7.83511152 4.43047349 -12.49214766 7.94016574 -17 13 C-17.4846875 13.5053125 -17.969375 14.010625 -18.46875 14.53125 C-21.74125076 18.10816943 -22.89732442 21.33483409 -24 26 C-24.32613281 26.72574219 -24.65226562 27.45148438 -24.98828125 28.19921875 C-26.54114459 32.49807208 -26.7812016 36.94856494 -27.2109375 41.46875 C-27.40983083 43.3205155 -27.6979038 45.16224814 -28 47 C-28.99 47.495 -28.99 47.495 -30 48 C-30 42.72 -30 37.44 -30 32 C-29.34 32 -28.68 32 -28 32 C-28.04125 30.948125 -28.0825 29.89625 -28.125 28.8125 C-27.95175542 23.52854021 -26.51758842 19.95728698 -23 16 C-22.34 16 -21.68 16 -21 16 C-20.67 14.35 -20.34 12.7 -20 11 C-19.01 10.67 -18.02 10.34 -17 10 C-16.566875 9.071875 -16.566875 9.071875 -16.125 8.125 C-14.64082128 5.32155131 -12.71920534 4.53391071 -10 3 C-9.67 2.34 -9.34 1.68 -9 1 C-3.6407767 -1.21359223 -3.6407767 -1.21359223 0 0 Z " fill="#0D98DC" transform="translate(526,82)"/>
<path d="M0 0 C3.90166812 1.30055604 5.11853757 3.25628887 7.6875 6.4375 C8.49574219 7.42621094 9.30398438 8.41492188 10.13671875 9.43359375 C12 12 12 12 12 14 C12.598125 14.226875 13.19625 14.45375 13.8125 14.6875 C16.57839575 16.34703745 17.46274117 18.20498395 19 21 C19.66 21.66 20.32 22.32 21 23 C19.88625 22.979375 18.7725 22.95875 17.625 22.9375 C11.23107471 23.69841118 7.32725676 28.62820886 3 33 C2.42378906 33.56332031 1.84757813 34.12664062 1.25390625 34.70703125 C0.15342857 35.78880392 -0.92686689 36.89109579 -2 38 C-1.49462517 32.10396032 2.10677351 29.61415793 6.33203125 26.01171875 C7.55986328 24.95404297 7.55986328 24.95404297 8.8125 23.875 C9.60269531 23.21242187 10.39289062 22.54984375 11.20703125 21.8671875 C13.34631303 20.0707938 13.34631303 20.0707938 13 17 C12.34 17.33 11.68 17.66 11 18 C11 16.68 11 15.36 11 14 C10.34 14 9.68 14 9 14 C8.67 12.68 8.34 11.36 8 10 C7.34 10 6.68 10 6 10 C6 9.34 6 8.68 6 8 C4.68 7.67 3.36 7.34 2 7 C2 5.68 2 4.36 2 3 C1.34 3 0.68 3 0 3 C0 2.01 0 1.02 0 0 Z " fill="#471B8B" transform="translate(654,212)"/>
<path d="M0 0 C5.13453033 2.48946925 8.62228979 6.49638639 12 11 C12.33 11.99 12.66 12.98 13 14 C14.32595459 14.68122438 15.66124716 15.34428432 17 16 C18.95751024 17.61850009 20.8714827 19.29044987 22.75 21 C23.25660156 21.45117188 23.76320313 21.90234375 24.28515625 22.3671875 C25.56545817 23.53360812 26.78791729 24.76283971 28 26 C28 26.66 28 27.32 28 28 C28.7425 28.226875 29.485 28.45375 30.25 28.6875 C33.51139591 30.24407532 34.92894975 32.08518854 37 35 C32.88686458 34.43334476 30.45572051 32.21847166 27.3125 29.625 C26.33925781 28.83351563 25.36601563 28.04203125 24.36328125 27.2265625 C22 25 22 25 21 22 C20.29875 21.773125 19.5975 21.54625 18.875 21.3125 C13.59718876 18.90306443 10.41190528 13.78564492 6.875 9.3125 C4.95125358 6.84901193 4.95125358 6.84901193 2.25 4.3125 C0 2 0 2 0 0 Z " fill="#FBFBFA" transform="translate(628,334)"/>
<path d="M0 0 C0.66 0 1.32 0 2 0 C0.90606289 3.00832704 -0.38502931 5.74611341 -2 8.5 C-7.84135252 18.6033764 -8.3723376 29.53690251 -9 41 C-8.34 41.33 -7.68 41.66 -7 42 C-7 42.66 -7 43.32 -7 44 C-6.34 44 -5.68 44 -5 44 C-4.34 45.98 -3.68 47.96 -3 50 C-2.34 50 -1.68 50 -1 50 C-0.67 50.99 -0.34 51.98 0 53 C-3.36295835 51.55873214 -5.62927102 49.79407345 -8 47 C-8 46.01 -8 45.02 -8 44 C-8.61875 43.731875 -9.2375 43.46375 -9.875 43.1875 C-12 42 -12 42 -14 39 C-13.51402344 38.60167969 -13.02804687 38.20335937 -12.52734375 37.79296875 C-10.57663645 35.503008 -10.64008458 34.29266071 -10.5625 31.3125 C-10.08775213 23.63396915 -7.99536272 16.3967632 -6 9 C-5.34 9 -4.68 9 -4 9 C-4 7.68 -4 6.36 -4 5 C-3.34 5 -2.68 5 -2 5 C-1.34 3.35 -0.68 1.7 0 0 Z " fill="#2E0D64" transform="translate(614,253)"/>
<path d="M0 0 C0.8604464 2.95667697 1.0994281 5.51151072 1.02172852 8.58496094 C1.00163223 9.48559265 0.98153595 10.38622437 0.96083069 11.31414795 C0.93379562 12.27782288 0.90676056 13.2414978 0.87890625 14.234375 C0.85529526 15.22753723 0.83168427 16.22069946 0.80735779 17.24395752 C0.73084932 20.41278838 0.6467696 23.58136696 0.5625 26.75 C0.5092665 28.89972728 0.45652619 31.04946684 0.40429688 33.19921875 C0.27525153 38.46630158 0.13999115 43.73319735 0 49 C-0.99 49.495 -0.99 49.495 -2 50 C-2.05064489 43.36144258 -2.08571023 36.72293486 -2.10986328 30.08422852 C-2.11993058 27.82509499 -2.13358538 25.56597453 -2.15087891 23.30688477 C-2.17509508 20.06263001 -2.18647575 16.81854729 -2.1953125 13.57421875 C-2.20563507 12.56163498 -2.21595764 11.54905121 -2.22659302 10.50578308 C-2.22674408 9.56503433 -2.22689514 8.62428558 -2.22705078 7.6550293 C-2.231492 6.82674118 -2.23593323 5.99845306 -2.24050903 5.14506531 C-2 3 -2 3 0 0 Z " fill="#0876D8" transform="translate(453,183)"/>
<path d="M0 0 C0.99 0.99 1.98 1.98 3 3 C-3.66666667 9.66666667 -10.33333333 16.33333333 -17 23 C-17.33 22.34 -17.66 21.68 -18 21 C-17.56429687 20.50371094 -17.12859375 20.00742188 -16.6796875 19.49609375 C-14.78358532 17.33322395 -12.89112179 15.16722557 -11 13 C-10.41734375 12.33355469 -9.8346875 11.66710937 -9.234375 10.98046875 C-8.70328125 10.36816406 -8.1721875 9.75585938 -7.625 9.125 C-6.90183594 8.29355469 -6.90183594 8.29355469 -6.1640625 7.4453125 C-4.9045572 5.98639963 -4.9045572 5.98639963 -4 4 C-2.35 4 -0.7 4 1 4 C0.67 2.68 0.34 1.36 0 0 Z M-20 23 C-19.34 23.33 -18.68 23.66 -18 24 C-22.625 29.875 -22.625 29.875 -26 31 C-24.55746343 27.63408134 -22.66735273 25.48952921 -20 23 Z " fill="#2E0E64" transform="translate(652,209)"/>
<path d="M0 0 C-1.35172847 4.08379341 -3.06936242 6.37683519 -6.1875 9.3125 C-9.8583431 12.85308738 -13.27761375 16.49507992 -16.58984375 20.37109375 C-18.73534383 22.84941379 -20.95521543 24.74626271 -23.625 26.625 C-24.25664063 27.07101563 -24.88828125 27.51703125 -25.5390625 27.9765625 C-26.02117188 28.31429687 -26.50328125 28.65203125 -27 29 C-25.71480435 26.13302508 -24.42870746 24.02392288 -22 22 C-21.34 22 -20.68 22 -20 22 C-19.773125 21.278125 -19.54625 20.55625 -19.3125 19.8125 C-17.72668125 16.41431697 -15.73876676 14.54769001 -13 12 C-9.40020213 8.57580203 -6.73019463 5.14236427 -4 1 C-2 0 -2 0 0 0 Z " fill="#531DB4" transform="translate(619,75)"/>
<path d="M0 0 C1.65 0.66 3.3 1.32 5 2 C5 2.99 5 3.98 5 5 C3.35 4.34 1.7 3.68 0 3 C-0.33 3.99 -0.66 4.98 -1 6 C-1.66 6 -2.32 6 -3 6 C-3.103125 6.5775 -3.20625 7.155 -3.3125 7.75 C-4.10896465 10.35661158 -5.19065277 11.9735311 -7 14 C-7.66 14 -8.32 14 -9 14 C-9.33 14.99 -9.66 15.98 -10 17 C-11.64639965 18.35827971 -13.31295807 19.69254251 -15 21 C-15.33 21.66 -15.66 22.32 -16 23 C-16.66 23 -17.32 23 -18 23 C-18 23.66 -18 24.32 -18 25 C-18.66 25 -19.32 25 -20 25 C-20 25.66 -20 26.32 -20 27 C-20.66 27 -21.32 27 -22 27 C-20.64763423 24.06120516 -19.10057341 21.70767089 -17 19.25 C-16.484375 18.63640625 -15.96875 18.0228125 -15.4375 17.390625 C-14 16 -14 16 -12 16 C-12 15.34 -12 14.68 -12 14 C-11.34 14 -10.68 14 -10 14 C-9.773125 13.484375 -9.54625 12.96875 -9.3125 12.4375 C-7.51782382 9.10452995 -5.50034985 5.85296329 -3 3 C-2.34 3 -1.68 3 -1 3 C-0.67 2.01 -0.34 1.02 0 0 Z " fill="#41209F" transform="translate(635,190)"/>
<path d="M0 0 C0.7734375 0.3403125 0.7734375 0.3403125 1.5625 0.6875 C-4.39183757 4.23720124 -9.07822506 5.2086832 -15.99609375 5.51171875 C-18.38412639 5.41595945 -18.38412639 5.41595945 -19.4375 6.6875 C-21.25 6.8203125 -21.25 6.8203125 -23.4375 6.8125 C-24.159375 6.81507813 -24.88125 6.81765625 -25.625 6.8203125 C-27.4375 6.6875 -27.4375 6.6875 -28.4375 5.6875 C-30.75702569 5.40648054 -33.07635514 5.23967375 -35.40625 5.06640625 C-36.0765625 4.94136719 -36.746875 4.81632812 -37.4375 4.6875 C-37.7675 4.0275 -38.0975 3.3675 -38.4375 2.6875 C-37.59566162 2.70321045 -36.75382324 2.7189209 -35.88647461 2.73510742 C-32.73496818 2.78652251 -29.58367701 2.8239888 -26.43188477 2.85229492 C-25.07308883 2.86729409 -23.71434059 2.88770038 -22.35571289 2.91381836 C-15.18772052 3.04807014 -6.19507676 -0.79424061 0 0 Z " fill="#8F1EAD" transform="translate(695.4375,336.3125)"/>
<path d="M0 0 C0.66 0 1.32 0 2 0 C1.38271885 3.38361519 0.13020282 5.52002561 -1.9375 8.25 C-2.46214844 8.95640625 -2.98679687 9.6628125 -3.52734375 10.390625 C-4.01332031 10.92171875 -4.49929688 11.4528125 -5 12 C-5.66 12 -6.32 12 -7 12 C-7.226875 12.5775 -7.45375 13.155 -7.6875 13.75 C-9.33708262 16.57785592 -11.39710359 18.04782769 -14 20 C-14.66 20.66 -15.32 21.32 -16 22 C-16.33 21.01 -16.66 20.02 -17 19 C-16.34 19 -15.68 19 -15 19 C-15 18.34 -15 17.68 -15 17 C-14.34 17 -13.68 17 -13 17 C-13 16.34 -13 15.68 -13 15 C-12.34 15 -11.68 15 -11 15 C-10.73316406 14.41476562 -10.46632813 13.82953125 -10.19140625 13.2265625 C-8.98062783 10.96379627 -7.6463301 9.28116429 -5.9375 7.375 C-4.33621517 5.5818742 -3.07671842 4.15343684 -2 2 C-1.34 2 -0.68 2 0 2 C0 1.34 0 0.68 0 0 Z " fill="#0919CC" transform="translate(526,336)"/>
<path d="M0 0 C2.125 0.9375 2.125 0.9375 4 2 C3.34 3.65 2.68 5.3 2 7 C1.34 7 0.68 7 0 7 C-0.2475 7.78375 -0.495 8.5675 -0.75 9.375 C-2.19494285 12.40937999 -3.05565819 12.67029725 -6 14 C-6.33 14.99 -6.66 15.98 -7 17 C-7.66 17 -8.32 17 -9 17 C-9 14.69 -9 12.38 -9 10 C-7.02 10 -5.04 10 -3 10 C-3 9.34 -3 8.68 -3 8 C-2.34 8 -1.68 8 -1 8 C-1.33 5.69 -1.66 3.38 -2 1 C-1.34 0.67 -0.68 0.34 0 0 Z " fill="#272646" transform="translate(555,276)"/>
<path d="M0 0 C0.33 0.99 0.66 1.98 1 3 C-1.3125 6.1875 -1.3125 6.1875 -4 9 C-4.66 9 -5.32 9 -6 9 C-6 9.66 -6 10.32 -6 11 C-6.66 11 -7.32 11 -8 11 C-8 11.66 -8 12.32 -8 13 C-8.66 13 -9.32 13 -10 13 C-10 13.66 -10 14.32 -10 15 C-10.66 15 -11.32 15 -12 15 C-12 15.66 -12 16.32 -12 17 C-12.66 17 -13.32 17 -14 17 C-14 17.99 -14 18.98 -14 20 C-15.8125 22.1875 -15.8125 22.1875 -18 24 C-18.99 24 -19.98 24 -21 24 C-21 22 -21 22 -19.125 19.875 C-17 18 -17 18 -15 18 C-14.7421875 17.42765625 -14.484375 16.8553125 -14.21875 16.265625 C-12.88634058 13.78871005 -11.34943882 11.8658834 -9.5 9.75 C-8.8915625 9.04359375 -8.283125 8.3371875 -7.65625 7.609375 C-6 6 -6 6 -4 6 C-3.566875 5.071875 -3.566875 5.071875 -3.125 4.125 C-2 2 -2 2 0 0 Z " fill="#331AA3" transform="translate(612,217)"/>
<path d="M0 0 C1.65 0 3.3 0 5 0 C5.36122881 1.31057393 5.71380311 2.62353624 6.0625 3.9375 C6.25972656 4.66839844 6.45695313 5.39929688 6.66015625 6.15234375 C6.77230469 6.76207031 6.88445313 7.37179688 7 8 C6.67 8.33 6.34 8.66 6 9 C5.8396444 12.02807044 5.74039552 15.03585454 5.68359375 18.06640625 C5.66281265 18.97502914 5.64203156 19.88365204 5.62062073 20.81980896 C5.55502328 23.73395946 5.4961932 26.64820304 5.4375 29.5625 C5.39432446 31.53321291 5.35071049 33.50391626 5.30664062 35.47460938 C5.19933157 40.31630988 5.09809325 45.15810437 5 50 C4.67 50 4.34 50 4 50 C4 33.83 4 17.66 4 1 C2.68 0.67 1.36 0.34 0 0 Z " fill="#1B7CC9" transform="translate(539,83)"/>
<path d="M0 0 C4.31268363 0.03450147 7.80549579 0.80213687 11.875 2.1875 C11.875 2.5175 11.875 2.8475 11.875 3.1875 C10.97575806 3.217229 10.97575806 3.217229 10.05834961 3.24755859 C7.30933529 3.34355003 4.56100507 3.45292505 1.8125 3.5625 C0.39807617 3.60890625 0.39807617 3.60890625 -1.04492188 3.65625 C-6.40066579 3.88018354 -11.04598241 4.45457583 -16.125 6.1875 C-16.125 5.1975 -16.125 4.2075 -16.125 3.1875 C-14.95130859 2.98833984 -14.95130859 2.98833984 -13.75390625 2.78515625 C-12.74199219 2.60855469 -11.73007812 2.43195312 -10.6875 2.25 C-9.67816406 2.07597656 -8.66882813 1.90195312 -7.62890625 1.72265625 C-4.54711865 1.06399026 -3.33220648 0.02823904 0 0 Z " fill="#AB3BCC" transform="translate(672.125,43.8125)"/>
<path d="M0 0 C0 2 0 4 0 6 C0.66 5.67 1.32 5.34 2 5 C0.84906278 8.45281166 -0.3205993 9.38082163 -3.0625 11.6875 C-3.79597656 12.31011719 -4.52945313 12.93273437 -5.28515625 13.57421875 C-5.85105469 14.04472656 -6.41695312 14.51523438 -7 15 C-7.33 14.34 -7.66 13.68 -8 13 C-9.32 13.33 -10.64 13.66 -12 14 C-10.67048704 10.41031501 -8.49101949 8.64058401 -5.53125 6.3046875 C-3.3577138 4.45274594 -1.697011 2.28443789 0 0 Z " fill="#3825A3" transform="translate(580,116)"/>
<path d="M0 0 C0 3 0 3 -1 6 C-0.236875 5.649375 0.52625 5.29875 1.3125 4.9375 C4 4 4 4 7 5 C5.23408976 7.38013989 3.89751233 8.85097277 0.90625 9.34765625 C-0.66402971 9.44972443 -2.2343427 9.55128196 -3.8046875 9.65234375 C-6.98562464 10.15608646 -8.76757921 11.76757921 -11 14 C-9.43528652 10.15933963 -6.93965873 7.86966685 -4 5 C-2.64444707 3.35135455 -1.30368347 1.68996005 0 0 Z " fill="#A53ECE" transform="translate(642,47)"/>
<path d="M0 0 C1.32 0.33 2.64 0.66 4 1 C4 1.66 4 2.32 4 3 C4.66 3.33 5.32 3.66 6 4 C6 4.66 6 5.32 6 6 C6.66 6 7.32 6 8 6 C8 6.66 8 7.32 8 8 C8.99 8 9.98 8 11 8 C11 8.66 11 9.32 11 10 C11.7425 10.12375 12.485 10.2475 13.25 10.375 C15.80141485 10.95486701 17.7267573 11.73708739 20 13 C19.67 13.66 19.34 14.32 19 15 C18.67 14.67 18.34 14.34 18 14 C16.80375 13.95875 15.6075 13.9175 14.375 13.875 C8.9437307 13.28019313 6.34900025 10.0400638 3 6 C2.360625 5.236875 1.72125 4.47375 1.0625 3.6875 C0 2 0 2 0 0 Z " fill="#75199D" transform="translate(625,319)"/>
<path d="M0 0 C3.90166812 1.30055604 5.11853757 3.25628887 7.6875 6.4375 C8.49574219 7.42621094 9.30398438 8.41492188 10.13671875 9.43359375 C12 12 12 12 12 14 C13.32 14.66 14.64 15.32 16 16 C15.34 16.66 14.68 17.32 14 18 C13.01 18 12.02 18 11 18 C11 16.68 11 15.36 11 14 C10.34 14 9.68 14 9 14 C8.67 12.68 8.34 11.36 8 10 C7.34 10 6.68 10 6 10 C6 9.34 6 8.68 6 8 C4.68 7.67 3.36 7.34 2 7 C2 5.68 2 4.36 2 3 C1.34 3 0.68 3 0 3 C0 2.01 0 1.02 0 0 Z " fill="#3C2D73" transform="translate(654,212)"/>
<path d="M0 0 C0 0.66 0 1.32 0 2 C-1.78953185 2.83790789 -3.58169695 3.67019396 -5.375 4.5 C-6.87160156 5.19609375 -6.87160156 5.19609375 -8.3984375 5.90625 C-11 7 -11 7 -13 7 C-13 5.02 -13 3.04 -13 1 C-8.62426048 0.40667939 -4.42471556 -0.13827236 0 0 Z " fill="#1025C5" transform="translate(490,369)"/>
<path d="M0 0 C1.32 0.33 2.64 0.66 4 1 C2.02 1.99 2.02 1.99 0 3 C0 3.99 0 4.98 0 6 C-0.66 6 -1.32 6 -2 6 C-2 6.99 -2 7.98 -2 9 C-2.66 9 -3.32 9 -4 9 C-4 9.66 -4 10.32 -4 11 C-4.66 11 -5.32 11 -6 11 C-6 11.66 -6 12.32 -6 13 C-6.66 13 -7.32 13 -8 13 C-8.66 14.32 -9.32 15.64 -10 17 C-10.99 17 -11.98 17 -13 17 C-13 16.34 -13 15.68 -13 15 C-12.319375 14.484375 -11.63875 13.96875 -10.9375 13.4375 C-6.55417868 9.80027593 -2.56397951 5.12795903 0 0 Z " fill="#1F117E" transform="translate(589,241)"/>
<path d="M0 0 C5.70761567 5.35088969 10.66329984 11.49494976 15 18 C14.01 18.33 13.02 18.66 12 19 C12 18.01 12 17.02 12 16 C11.34 16 10.68 16 10 16 C10 15.34 10 14.68 10 14 C9.34 14 8.68 14 8 14 C4.40822409 10.74495309 1.99287508 7.7988962 1 3 C0.34 3 -0.32 3 -1 3 C-0.67 2.01 -0.34 1.02 0 0 Z " fill="#C123BA" transform="translate(769,346)"/>
<path d="M0 0 C1.32 0 2.64 0 4 0 C3.6121322 2.48660455 3.29037521 3.72345219 1.44140625 5.484375 C0.82136719 5.90203125 0.20132813 6.3196875 -0.4375 6.75 C-1.05496094 7.17796875 -1.67242188 7.6059375 -2.30859375 8.046875 C-4 9 -4 9 -6 9 C-6 9.66 -6 10.32 -6 11 C-6.66 11 -7.32 11 -8 11 C-8 11.66 -8 12.32 -8 13 C-8.99 12.67 -9.98 12.34 -11 12 C-10.34 12 -9.68 12 -9 12 C-8.731875 11.360625 -8.46375 10.72125 -8.1875 10.0625 C-7 8 -7 8 -4 7 C-4 6.34 -4 5.68 -4 5 C-3.34 5 -2.68 5 -2 5 C-1.34 3.35 -0.68 1.7 0 0 Z " fill="#2F2993" transform="translate(557,140)"/>
<path d="M0 0 C0.66 0 1.32 0 2 0 C-0.5 5 -0.5 5 -3 10 C-5.97 9.505 -5.97 9.505 -9 9 C-9 9.66 -9 10.32 -9 11 C-9.66 10.67 -10.32 10.34 -11 10 C-9.60885561 6.51849729 -8.35718398 5.35210488 -4.9375 3.875 C-1.81740843 2.65170572 -1.81740843 2.65170572 0 0 Z " fill="#190D62" transform="translate(581,254)"/>
<path d="M0 0 C0.99 0.495 0.99 0.495 2 1 C2.41064453 2.76586914 2.41064453 2.76586914 2.6328125 5.03515625 C2.71660156 5.84404297 2.80039062 6.65292969 2.88671875 7.48632812 C2.96535156 8.33646484 3.04398438 9.18660156 3.125 10.0625 C3.21136719 10.91650391 3.29773438 11.77050781 3.38671875 12.65039062 C3.59947228 14.76610633 3.80079953 16.88296524 4 19 C2.68 19 1.36 19 0 19 C0 12.73 0 6.46 0 0 Z " fill="#4579C7" transform="translate(544,133)"/>
<path d="M0 0 C0.82514784 2.83384108 1.07936233 5.16935251 0.87890625 8.109375 C0.83056641 8.86347656 0.78222656 9.61757812 0.73242188 10.39453125 C0.64831055 11.56048828 0.64831055 11.56048828 0.5625 12.75 C0.51029297 13.54277344 0.45808594 14.33554688 0.40429688 15.15234375 C0.27510676 17.10193997 0.13830035 19.05102886 0 21 C-0.66 21.33 -1.32 21.66 -2 22 C-2.05807043 18.89591193 -2.09361914 15.7919636 -2.125 12.6875 C-2.14175781 11.80642578 -2.15851563 10.92535156 -2.17578125 10.01757812 C-2.18222656 9.17001953 -2.18867188 8.32246094 -2.1953125 7.44921875 C-2.20578613 6.66893311 -2.21625977 5.88864746 -2.22705078 5.0847168 C-2 3 -2 3 0 0 Z " fill="#0887DA" transform="translate(453,183)"/>
<path d="M0 0 C0.33 0.99 0.66 1.98 1 3 C-2.59193015 9.28831132 -7.14190066 14.75287798 -13 19 C-13.66 18.67 -14.32 18.34 -15 18 C-14.00419922 17.05640625 -14.00419922 17.05640625 -12.98828125 16.09375 C-7.77857747 11.04375977 -3.52634456 6.34742021 0 0 Z " fill="#0E3ED2" transform="translate(491,285)"/>
<path d="M0 0 C2.97 0.495 2.97 0.495 6 1 C6.33 2.65 6.66 4.3 7 6 C7.66 6 8.32 6 9 6 C9 6.66 9 7.32 9 8 C9.66 8 10.32 8 11 8 C11.66 9.98 12.32 11.96 13 14 C12.278125 13.2575 11.55625 12.515 10.8125 11.75 C8.12821077 9.0127891 8.12821077 9.0127891 5.375 7 C2.86111265 4.88304223 1.52453247 2.88858783 0 0 Z " fill="#36324C" transform="translate(574,263)"/>
<path d="M0 0 C1.98 0.66 3.96 1.32 6 2 C6 2.66 6 3.32 6 4 C6.66 4 7.32 4 8 4 C8.66 5.98 9.32 7.96 10 10 C10.66 10 11.32 10 12 10 C12.33 10.99 12.66 11.98 13 13 C9.63704165 11.55873214 7.37072898 9.79407345 5 7 C5 6.01 5 5.02 5 4 C4.360625 3.71125 3.72125 3.4225 3.0625 3.125 C1 2 1 2 0 0 Z " fill="#361F7B" transform="translate(601,293)"/>
<path d="M0 0 C0.66 0 1.32 0 2 0 C1.55212676 4.64973854 -0.02185597 6.37027468 -3.5625 9.3125 C-4.38878906 10.00988281 -5.21507812 10.70726562 -6.06640625 11.42578125 C-6.70449219 11.94527344 -7.34257813 12.46476563 -8 13 C-8.33 12.01 -8.66 11.02 -9 10 C-6.19195732 7.03595495 -3.81684226 4.55500981 0 3 C0 2.01 0 1.02 0 0 Z " fill="#200C65" transform="translate(598,234)"/>
<path d="M0 0 C0.99 0.33 1.98 0.66 3 1 C1.55873214 4.36295835 -0.20592655 6.62927102 -3 9 C-3.99 9 -4.98 9 -6 9 C-4.47291037 5.56404834 -2.40072955 2.88087546 0 0 Z " fill="#6F28C0" transform="translate(666,152)"/>
<path d="M0 0 C0 0.66 0 1.32 0 2 C-5.39460953 4.27141454 -10.26157749 4.20413361 -16 4 C-15.67 3.01 -15.34 2.02 -15 1 C-13.9275 1.20625 -12.855 1.4125 -11.75 1.625 C-7.05599716 2.09440028 -4.66405245 0 0 0 Z " fill="#1329D4" transform="translate(469,375)"/>
<path d="M0 0 C0.99 0.66 1.98 1.32 3 2 C1.92781799 3.01194706 0.84173622 4.00918057 -0.25 5 C-1.15492188 5.8353125 -1.15492188 5.8353125 -2.078125 6.6875 C-4 8 -4 8 -8 8 C-6.74157232 4.22471696 -5.37506571 3.89332955 -2 2 C-1.34 1.34 -0.68 0.68 0 0 Z " fill="#9635C6" transform="translate(636,56)"/>
<path d="M0 0 C0.33 0 0.66 0 1 0 C1.71925996 7.48030361 -0.5117559 13.39347708 -4 20 C-4.66 20.33 -5.32 20.66 -6 21 C-4.9604443 15.4964698 -3.56227579 11.01314828 -1 6 C-0.29241674 2.7633037 -0.29241674 2.7633037 0 0 Z " fill="#1333CD" transform="translate(539,260)"/>
<path d="M0 0 C0.66 0.33 1.32 0.66 2 1 C2 4.96 2 8.92 2 13 C1.67 11.68 1.34 10.36 1 9 C-1.31 8.67 -3.62 8.34 -6 8 C-6 7.67 -6 7.34 -6 7 C-4.02 7 -2.04 7 0 7 C0 4.69 0 2.38 0 0 Z " fill="#20A5DE" transform="translate(543,74)"/>
<path d="M0 0 C0.66 0.33 1.32 0.66 2 1 C1.04956626 2.33897583 0.08940853 3.67105427 -0.875 5 C-1.40867187 5.7425 -1.94234375 6.485 -2.4921875 7.25 C-2.98976563 7.8275 -3.48734375 8.405 -4 9 C-4.66 9 -5.32 9 -6 9 C-6 9.66 -6 10.32 -6 11 C-6.66 11 -7.32 11 -8 11 C-8 11.66 -8 12.32 -8 13 C-8.66 13 -9.32 13 -10 13 C-8.64763423 10.06120516 -7.10057341 7.70767089 -5 5.25 C-4.2265625 4.32960937 -4.2265625 4.32960937 -3.4375 3.390625 C-2 2 -2 2 0 2 C0 1.34 0 0.68 0 0 Z " fill="#4021AC" transform="translate(623,204)"/>
<path d="M0 0 C0.042721 1.66611905 0.04063832 3.33382885 0 5 C-1 6 -1 6 -3.5625 6.0625 C-4.7690625 6.0315625 -4.7690625 6.0315625 -6 6 C-6 3 -6 3 -5 1 C-2 0 -2 0 0 0 Z " fill="#2B1A90" transform="translate(572,129)"/>
<path d="M0 0 C1.65 0 3.3 0 5 0 C3 4 1 8 -1 12 C-1.02698189 10.37509046 -1.04638757 8.75005367 -1.0625 7.125 C-1.07410156 6.22007812 -1.08570313 5.31515625 -1.09765625 4.3828125 C-1 2 -1 2 0 0 Z " fill="#3C53DA" transform="translate(542,295)"/>
<path d="M0 0 C0 1.98 0 3.96 0 6 C-1.32 6 -2.64 6 -4 6 C-4.66 4.02 -5.32 2.04 -6 0 C-2.25 -1.125 -2.25 -1.125 0 0 Z " fill="#150A3A" transform="translate(596,278)"/>
<path d="M0 0 C0.66 0 1.32 0 2 0 C2.33 3.96 2.66 7.92 3 12 C2.01 12.66 1.02 13.32 0 14 C0 9.38 0 4.76 0 0 Z " fill="#1F1689" transform="translate(561,210)"/>
<path d="M0 0 C4.03810445 1.34603482 5.47295076 3.65336723 8 7 C8 7.66 8 8.32 8 9 C7.34 9 6.68 9 6 9 C6 8.34 6 7.68 6 7 C5.34 7 4.68 7 4 7 C4 6.34 4 5.68 4 5 C3.01 5 2.02 5 1 5 C0.34 3.68 -0.32 2.36 -1 1 C-0.67 0.67 -0.34 0.34 0 0 Z " fill="#BC1DB3" transform="translate(784,366)"/>
<path d="M0 0 C2.475 0.495 2.475 0.495 5 1 C5.36923077 8.38461538 5.36923077 8.38461538 3.5 11.5 C3.005 11.995 2.51 12.49 2 13 C1.34 12.67 0.68 12.34 0 12 C1.32 8.7 2.64 5.4 4 2 C2.68 1.34 1.36 0.68 0 0 Z " fill="#FAF8FA" transform="translate(794,3)"/>
<path d="M0 0 C3.26008643 3.16952847 6.22237877 6.39937989 9 10 C6.03 9.505 6.03 9.505 3 9 C3 7.68 3 6.36 3 5 C2.34 5 1.68 5 1 5 C1 4.34 1 3.68 1 3 C0.34 3 -0.32 3 -1 3 C-0.67 2.01 -0.34 1.02 0 0 Z " fill="#5A119B" transform="translate(696,260)"/>
<path d="M0 0 C1.37562854 1.28965176 2.70766393 2.62689293 4 4 C4 4.66 4 5.32 4 6 C5.32 6.66 6.64 7.32 8 8 C7.34 8.66 6.68 9.32 6 10 C5.01 10 4.02 10 3 10 C3 8.68 3 7.36 3 6 C2.34 6 1.68 6 1 6 C0.67 4.02 0.34 2.04 0 0 Z " fill="#361A71" transform="translate(662,220)"/>
<path d="M0 0 C0.33 0.66 0.66 1.32 1 2 C3.31 2 5.62 2 8 2 C7.67 3.32 7.34 4.64 7 6 C2.25 5.25 2.25 5.25 0 3 C0 2.01 0 1.02 0 0 Z " fill="#8E15AD" transform="translate(655,351)"/>
<path d="M0 0 C0.66 0 1.32 0 2 0 C0.4169423 4.2742558 -2.50568404 6.26531794 -6 9 C-5.67 6.69 -5.34 4.38 -5 2 C-3.35 2 -1.7 2 0 2 C0 1.34 0 0.68 0 0 Z " fill="#4F4C93" transform="translate(572,263)"/>
<path d="M0 0 C1.32 0.99 2.64 1.98 4 3 C3.67 3.99 3.34 4.98 3 6 C0.03 5.505 0.03 5.505 -3 5 C-2.01 3.35 -1.02 1.7 0 0 Z " fill="#5E1C9C" transform="translate(691,255)"/>
<path d="M0 0 C0.99 0 1.98 0 3 0 C1.25 5.75 1.25 5.75 -1 8 C-1.99 7.67 -2.98 7.34 -4 7 C-3.34 6.01 -2.68 5.02 -2 4 C-2 3.34 -2 2.68 -2 2 C-1.34 2 -0.68 2 0 2 C0 1.34 0 0.68 0 0 Z " fill="#6A33BC" transform="translate(647,174)"/>
<path d="M0 0 C0.33 0.66 0.66 1.32 1 2 C-1.31 4.64 -3.62 7.28 -6 10 C-6 6.24633583 -4.88579937 4.21284338 -3 1 C-2.01 0.67 -1.02 0.34 0 0 Z " fill="#250B61" transform="translate(616,216)"/>
<path d="M0 0 C-1.26941497 3.91402949 -2.51167694 5.79072873 -6 8 C-6.33 7.34 -6.66 6.68 -7 6 C-3.92682927 0 -3.92682927 0 0 0 Z " fill="#6C1DB5" transform="translate(619,75)"/>
<path d="M0 0 C-4.5 4 -4.5 4 -9 4 C-8 1 -8 1 -6.1875 -0.25 C-3.66056586 -1.11637742 -2.47778006 -0.88492145 0 0 Z " fill="#921BAF" transform="translate(708,330)"/>
<path d="M0 0 C1.32 0.33 2.64 0.66 4 1 C4 1.66 4 2.32 4 3 C4.66 3.33 5.32 3.66 6 4 C6 4.66 6 5.32 6 6 C6.66 6 7.32 6 8 6 C8 6.66 8 7.32 8 8 C4.82461668 7.65978036 3.97723135 6.97533396 1.75 4.5625 C0 2 0 2 0 0 Z " fill="#560F90" transform="translate(625,319)"/>
<path d="M0 0 C1.32 0.33 2.64 0.66 4 1 C2.68 1.33 1.36 1.66 0 2 C0 1.34 0 0.68 0 0 Z M0 2 C-2.297221 3.74271938 -4.59866729 5.39911152 -7 7 C-7.99 6.67 -8.98 6.34 -10 6 C-6.58908673 2.88145073 -4.68377325 1.46471163 0 2 Z " fill="#17C6EC" transform="translate(494,68)"/>
<path d="M0 0 C0.66 0.33 1.32 0.66 2 1 C-0.31 3.64 -2.62 6.28 -5 9 C-5.99 8.67 -6.98 8.34 -8 8 C-6.37660195 6.29115995 -4.70680947 4.62553283 -3 3 C-2.34 3 -1.68 3 -1 3 C-0.67 2.01 -0.34 1.02 0 0 Z " fill="#AE35D0" transform="translate(665,25)"/>
<path d="M0 0 C1.32 0.33 2.64 0.66 4 1 C3.43628586 4.26954202 2.50037734 5.82575883 0 8 C0 5.36 0 2.72 0 0 Z " fill="#0C1CC2" transform="translate(529,328)"/>
<path d="M0 0 C3.98069267 2.87494471 6.43571997 5.82117329 9 10 C5.17647894 8.4422692 2.70794407 6.08404742 0 3 C0 2.01 0 1.02 0 0 Z " fill="#37305D" transform="translate(643,198)"/>
<path d="M0 0 C1.32 0.33 2.64 0.66 4 1 C4.33 3.31 4.66 5.62 5 8 C4.01 7.67 3.02 7.34 2 7 C2 5.35 2 3.7 2 2 C1.34 2 0.68 2 0 2 C0 1.34 0 0.68 0 0 Z " fill="#160C3B" transform="translate(637,194)"/>
<path d="M0 0 C0.66 0.33 1.32 0.66 2 1 C2.37211538 7.57403846 2.37211538 7.57403846 0.48828125 9.73046875 C-0.00285156 10.14941406 -0.49398438 10.56835938 -1 11 C-1.02688151 9.35425434 -1.04634123 7.70838587 -1.0625 6.0625 C-1.07410156 5.14597656 -1.08570313 4.22945312 -1.09765625 3.28515625 C-1 1 -1 1 0 0 Z " fill="#17B5E7" transform="translate(452,141)"/>
<path d="M0 0 C0.66 0.66 1.32 1.32 2 2 C0.35 3.98 -1.3 5.96 -3 8 C-3.66 6.68 -4.32 5.36 -5 4 C-3.35 2.68 -1.7 1.36 0 0 Z " fill="#D03FD5" transform="translate(754,51)"/>
<path d="M0 0 C2.31 0 4.62 0 7 0 C7 0.66 7 1.32 7 2 C4.35261084 3.4606285 3.10551666 4 0 4 C0 2.68 0 1.36 0 0 Z " fill="#0D1EAD" transform="translate(479,371)"/>
<path d="M0 0 C2.66666667 2.66666667 5.33333333 5.33333333 8 8 C7.67 8.66 7.34 9.32 7 10 C5.29115995 8.37660195 3.62553283 6.70680947 2 5 C2 4.34 2 3.68 2 3 C1.34 3 0.68 3 0 3 C0 2.01 0 1.02 0 0 Z " fill="#A839BC" transform="translate(738,310)"/>
<path d="M0 0 C0.66 0.33 1.32 0.66 2 1 C1.401875 1.721875 0.80375 2.44375 0.1875 3.1875 C-1.77422196 5.70971395 -3.41723983 8.2301697 -5 11 C-6 8 -6 8 -5.3125 6.0625 C-3.80558405 3.69448922 -2.04700257 1.91053573 0 0 Z " fill="#2C0B64" transform="translate(623,241)"/>
<path d="M0 0 C2.475 0.99 2.475 0.99 5 2 C5 2.99 5 3.98 5 5 C2.525 4.01 2.525 4.01 0 3 C0 3.66 0 4.32 0 5 C-0.99 5 -1.98 5 -3 5 C-3 4.34 -3 3.68 -3 3 C-2.34 3 -1.68 3 -1 3 C-0.67 2.01 -0.34 1.02 0 0 Z " fill="#452C90" transform="translate(635,190)"/>
<path d="M0 0 C1.32 0.66 2.64 1.32 4 2 C4 2.66 4 3.32 4 4 C4.66 4 5.32 4 6 4 C5.67 4.99 5.34 5.98 5 7 C3.02 5.35 1.04 3.7 -1 2 C-0.67 1.34 -0.34 0.68 0 0 Z " fill="#3A127E" transform="translate(616,308)"/>
<path d="M0 0 C1.65 0 3.3 0 5 0 C5.66 2.64 6.32 5.28 7 8 C6.01 8.33 5.02 8.66 4 9 C4 6.36 4 3.72 4 1 C2.68 0.67 1.36 0.34 0 0 Z " fill="#1A81BD" transform="translate(539,83)"/>
<path d="M0 0 C-0.99 1.485 -0.99 1.485 -2 3 C-4.31 2.34 -6.62 1.68 -9 1 C-5.64919071 -1.10976881 -3.77897651 -1.0497157 0 0 Z " fill="#9D16AE" transform="translate(694,371)"/>
<path d="M0 0 C1.32 0.33 2.64 0.66 4 1 C2.68 2.65 1.36 4.3 0 6 C-0.99 5.67 -1.98 5.34 -3 5 C-2.67 4.01 -2.34 3.02 -2 2 C-1.34 2 -0.68 2 0 2 C0 1.34 0 0.68 0 0 Z " fill="#922AC9" transform="translate(692,122)"/>
<path d="M0 0 C-1.12073862 0.83905565 -2.24674547 1.67107831 -3.375 2.5 C-4.00148438 2.9640625 -4.62796875 3.428125 -5.2734375 3.90625 C-7 5 -7 5 -9 5 C-8.00233891 2.50584728 -7.31383315 1.21259665 -5.0625 -0.3125 C-3 -1 -3 -1 0 0 Z " fill="#0E1AC7" transform="translate(510,359)"/>
<path d="M0 0 C2.125 0.9375 2.125 0.9375 4 2 C4 2.66 4 3.32 4 4 C2.35 4.33 0.7 4.66 -1 5 C-1.33 3.68 -1.66 2.36 -2 1 C-1.34 0.67 -0.68 0.34 0 0 Z " fill="#0D0B47" transform="translate(555,276)"/>
<path d="M0 0 C2.97 0.495 2.97 0.495 6 1 C6.33 1.99 6.66 2.98 7 4 C5.68 4.33 4.36 4.66 3 5 C2.01 3.35 1.02 1.7 0 0 Z " fill="#2D2541" transform="translate(574,263)"/>
<path d="M0 0 C0.33 0.99 0.66 1.98 1 3 C-1.31 4.98 -3.62 6.96 -6 9 C-4.25618453 5.51236907 -2.47193291 2.96631949 0 0 Z " fill="#612AC4" transform="translate(625,134)"/>
<path d="M0 0 C0.66 0.66 1.32 1.32 2 2 C1.01 2.66 0.02 3.32 -1 4 C-2.19232613 6.05003955 -2.19232613 6.05003955 -3 8 C-3.66 7.67 -4.32 7.34 -5 7 C-3.70700306 4.11562221 -2.34058637 2.12780579 0 0 Z " fill="#DD42D6" transform="translate(780,21)"/>
<path d="M0 0 C0.33 0.99 0.66 1.98 1 3 C-0.65 3.66 -2.3 4.32 -4 5 C-4.33 4.34 -4.66 3.68 -5 3 C-3.35 2.01 -1.7 1.02 0 0 Z " fill="#FAF4F9" transform="translate(799,380)"/>
<path d="M0 0 C1.7074998 1.28062485 3.37373596 2.61767557 5 4 C5 4.66 5 5.32 5 6 C4.34 6 3.68 6 3 6 C0 2.53846154 0 2.53846154 0 0 Z " fill="#DCDCDC" transform="translate(621,326)"/>
<path d="M0 0 C0.66 0.66 1.32 1.32 2 2 C0.35 2.66 -1.3 3.32 -3 4 C-3.33 3.34 -3.66 2.68 -4 2 C-2.68 1.34 -1.36 0.68 0 0 Z " fill="#FFFFFF" transform="translate(509,4)"/>
<path d="M0 0 C0.66 0.33 1.32 0.66 2 1 C0.02 1.99 0.02 1.99 -2 3 C-1.34 2.01 -0.68 1.02 0 0 Z " fill="#FFFFFF" transform="translate(658,21)"/>
<path d="M0 0 C0.66 0.33 1.32 0.66 2 1 C0.02 1.99 0.02 1.99 -2 3 C-1.34 2.01 -0.68 1.02 0 0 Z " fill="#FFFFFF" transform="translate(662,18)"/>
<path d="M0 0 C0.99 0.33 1.98 0.66 3 1 C2.67 1.66 2.34 2.32 2 3 C1.34 2.01 0.68 1.02 0 0 Z " fill="#FFFFFF" transform="translate(665,369)"/>
<path d="M0 0 C0.66 0 1.32 0 2 0 C2 0.66 2 1.32 2 2 C1.34 2 0.68 2 0 2 C0 1.34 0 0.68 0 0 Z " fill="#FFFFFF" transform="translate(446,69)"/>
<path d="M0 0 C3 1 3 1 3 1 Z " fill="#FFFFFF" transform="translate(680,378)"/>
<path d="M0 0 C3 1 3 1 3 1 Z " fill="#FFFFFF" transform="translate(511,4)"/>
<path d="" fill="#FFFFFF" transform="translate(0,0)"/>
<path d="M0 0 C2 1 2 1 2 1 Z " fill="#FFFFFF" transform="translate(665,16)"/>
<path d="" fill="#FFFFFF" transform="translate(0,0)"/>
<path d="" fill="#FFFFFF" transform="translate(0,0)"/>
<path d="" fill="#FFFFFF" transform="translate(0,0)"/>
<path d="" fill="#FFFFFF" transform="translate(0,0)"/>
<path d="" fill="#FFFFFF" transform="translate(0,0)"/>
<path d="" fill="#FFFFFF" transform="translate(0,0)"/>
<path d="" fill="#000000" transform="translate(0,0)"/>
<path d="" fill="#FFFFFF" transform="translate(0,0)"/>
<path d="" fill="#FFFFFF" transform="translate(0,0)"/>
<path d="" fill="#FFFFFF" transform="translate(0,0)"/>
<path d="" fill="#FFFFFF" transform="translate(0,0)"/>
<path d="" fill="#FFFFFF" transform="translate(0,0)"/>
<path d="" fill="#FFFFFF" transform="translate(0,0)"/>
</svg>
