<?xml version="1.0" encoding="UTF-8"?>
<svg version="1.1" xmlns="http://www.w3.org/2000/svg" width="1000" height="1000">
<path d="M0 0 C187.44 0 374.88 0 568 0 C568 99 568 198 568 300 C523 300 523 300 512.125 292 C508.8203125 287.5 508.8203125 287.5 507.42871094 285.23632812 C503.91610747 279.73813131 499.16602737 275.02674297 494.5 270.5 C491.73439592 267.77170593 489.08712969 265.01483166 486.5625 262.0625 C483.84380752 258.8896408 480.97248325 255.93661618 478 253 C474.41441301 249.45767801 471.05108338 245.82444339 467.77734375 241.99609375 C465.05022777 238.93333273 462.10595363 236.09776507 459.1875 233.21875 C456.59803119 230.59228878 454.21163036 227.83023542 451.8125 225.03125 C449.7890712 222.76361428 447.66346653 220.6342305 445.5 218.5 C442.73439592 215.77170593 440.08712969 213.01483166 437.5625 210.0625 C434.84380752 206.8896408 431.97248325 203.93661618 429 201 C425.41441301 197.45767801 422.05108338 193.82444339 418.77734375 189.99609375 C416.05022777 186.93333273 413.10595363 184.09776507 410.1875 181.21875 C407.59803119 178.59228878 405.21163036 175.83023542 402.8125 173.03125 C400.7890712 170.76361428 398.66346653 168.6342305 396.5 166.5 C393.73439592 163.77170593 391.08712969 161.01483166 388.5625 158.0625 C385.84380752 154.8896408 382.97248325 151.93661618 380 149 C376.41441301 145.45767801 373.05108338 141.82444339 369.77734375 137.99609375 C367.05022777 134.93333273 364.10595363 132.09776507 361.1875 129.21875 C358.59803119 126.59228878 356.21163036 123.83023542 353.8125 121.03125 C351.7890712 118.76361428 349.66346653 116.6342305 347.5 114.5 C344.73439592 111.77170593 342.08712969 109.01483166 339.5625 106.0625 C336.84380752 102.8896408 333.97248325 99.93661618 331 97 C327.41441301 93.45767801 324.05108338 89.82444339 320.77734375 85.99609375 C318.05022777 82.93333273 315.10595363 80.09776507 312.1875 77.21875 C309.59803119 74.59228878 307.21163036 71.83023542 304.8125 69.03125 C302.07711889 65.96573669 299.13106194 63.12246143 296.20703125 60.23828125 C293.51140144 57.50448323 291.00614654 54.63690258 288.5 51.73046875 C286.75123565 49.71301404 284.99703817 47.77514504 283 46 C282.34 46 281.68 46 281 46 C279.45369011 47.50935103 279.45369011 47.50935103 277.85546875 49.48828125 C274.14055802 53.85610987 270.25858023 58.02879727 266.3125 62.1875 C261.47257543 67.30851722 256.64528055 72.43899457 251.875 77.625 C247.60310688 82.2686778 243.30897268 86.89070142 239 91.5 C234.65119779 96.15256575 230.31493017 100.81600129 226 105.5 C218.77494994 113.34138223 211.49009835 121.12673229 204.20898438 128.91601562 C197.63130632 135.95377171 191.06533923 143.00140757 184.53857422 150.08642578 C180.11723836 154.88217844 175.66503935 159.64875702 171.2109375 164.4140625 C167.45970457 168.42969951 163.72313543 172.45830753 160 176.5 C155.09340861 181.8264067 150.15605861 187.12343075 145.2109375 192.4140625 C141.45970457 196.42969951 137.72313543 200.45830753 134 204.5 C129.09340861 209.8264067 124.15605861 215.12343075 119.2109375 220.4140625 C115.45970457 224.42969951 111.72313543 228.45830753 108 232.5 C103.09340861 237.8264067 98.15605861 243.12343075 93.2109375 248.4140625 C89.45970457 252.42969951 85.72313543 256.45830753 82 260.5 C77.10008631 265.81915764 72.17024241 271.1097173 67.23071289 276.39208984 C62.79431605 281.13960742 58.3824057 285.90911516 53.99414062 290.70117188 C51.06593281 293.88762846 48.0651215 296.9348785 45 300 C30.15 300 15.3 300 0 300 C0 201 0 102 0 0 Z M45 45 C45 107.04 45 169.08 45 233 C50.0722561 228.81736774 50.0722561 228.81736774 54.39453125 224.19921875 C58.02970843 219.94172317 61.83469619 215.87287497 65.6875 211.8125 C70.50738603 206.71297514 75.31381465 201.60343727 80.0625 196.4375 C84.5128778 191.59768562 88.99845738 186.79225778 93.5 182 C98.52987909 176.64462823 103.5355963 171.26861103 108.51171875 165.86328125 C112.91586754 161.0823069 117.35256617 156.3321553 121.79150391 151.58349609 C125.52198345 147.59029227 129.23634898 143.58288776 132.9375 139.5625 C138.06793675 133.99073536 143.24597564 128.46465147 148.43115234 122.94384766 C152.81554514 118.27232143 157.17251018 113.57676118 161.51171875 108.86328125 C165.91586754 104.0823069 170.35256617 99.3321553 174.79150391 94.58349609 C178.52198345 90.59029227 182.23634898 86.58288776 185.9375 82.5625 C190.43100134 77.68246091 194.9587809 72.8356479 199.5 68 C204.30094392 62.88363412 209.10040314 57.76597883 213.875 52.625 C214.38095703 52.08359375 214.88691406 51.5421875 215.40820312 50.984375 C218.00553471 48.21007241 218.00553471 48.21007241 220 45 C162.25 45 104.5 45 45 45 Z M345 45 C350.06831004 50.91318008 350.06831004 50.91318008 355.4375 56.4375 C358.24443406 59.20694579 360.93443189 62.00584511 363.5 65 C366.04691608 67.97140209 368.71378859 70.7514401 371.5 73.5 C374.9071879 76.86114482 378.07458174 80.33701203 381.1875 83.96875 C383.2109288 86.23638572 385.33653347 88.3657695 387.5 90.5 C390.26560408 93.22829407 392.91287031 95.98516834 395.4375 98.9375 C398.15619248 102.1103592 401.02751675 105.06338382 404 108 C407.58558699 111.54232199 410.94891662 115.17555661 414.22265625 119.00390625 C416.94977223 122.06666727 419.89404637 124.90223493 422.8125 127.78125 C425.40196881 130.40771122 427.78836964 133.16976458 430.1875 135.96875 C432.2109288 138.23638572 434.33653347 140.3657695 436.5 142.5 C439.26560408 145.22829407 441.91287031 147.98516834 444.4375 150.9375 C447.15619248 154.1103592 450.02751675 157.06338382 453 160 C456.58558699 163.54232199 459.94891662 167.17555661 463.22265625 171.00390625 C465.94977223 174.06666727 468.89404637 176.90223493 471.8125 179.78125 C474.40196881 182.40771122 476.78836964 185.16976458 479.1875 187.96875 C481.2109288 190.23638572 483.33653347 192.3657695 485.5 194.5 C488.26560408 197.22829407 490.91287031 199.98516834 493.4375 202.9375 C496.94349685 207.02918541 500.75461891 210.76966883 504.5859375 214.5546875 C507.27824719 217.28184909 509.77306444 220.13107518 512.265625 223.0390625 C515.34002248 226.51507047 518.57929251 229.86296094 522 233 C522.33 233 522.66 233 523 233 C523 170.96 523 108.92 523 45 C464.26 45 405.52 45 345 45 Z " fill="#31AEF7" transform="translate(216,350)"/>
<path d="M0 0 C14.52 0 29.04 0 44 0 C44 84.48 44 168.96 44 256 C29.15 256 14.3 256 -1 256 C-1.02258457 223.53152981 -1.04049781 191.06306263 -1.05106533 158.59458641 C-1.05231611 154.76545017 -1.05361042 150.93631395 -1.05493164 147.10717773 C-1.05519395 146.34483328 -1.05545626 145.58248882 -1.05572652 144.79704302 C-1.06008337 132.4369508 -1.067971 120.07686322 -1.0771528 107.71677376 C-1.08648892 95.04368015 -1.09205552 82.37058897 -1.09408849 69.69749206 C-1.09546381 61.87118202 -1.09981485 54.04488506 -1.10791647 46.21857905 C-1.11380409 40.22754191 -1.11445907 34.23651614 -1.11310768 28.24547577 C-1.11338421 25.78029487 -1.11539197 23.3151135 -1.11920547 20.84993553 C-1.12413575 17.50028519 -1.12300076 14.15069214 -1.12025452 10.80104065 C-1.12316736 9.81176168 -1.1260802 8.8224827 -1.12908131 7.80322558 C-1.12709026 6.91296866 -1.12509921 6.02271174 -1.12304783 5.10547733 C-1.12342755 4.33122758 -1.12380727 3.55697783 -1.1241985 2.75926596 C-1 1 -1 1 0 0 Z " fill="#000000" transform="translate(740,394)"/>
<path d="M0 0 C14.52 0 29.04 0 44 0 C45.90717814 1.90717814 45.12625561 5.32730861 45.12698364 7.8513031 C45.12854363 8.57738158 45.13010362 9.30346006 45.13171089 10.05154091 C45.13572625 12.50630457 45.13252829 14.96100727 45.12939453 17.41577148 C45.1307491 19.17087846 45.13252935 20.92598516 45.13470459 22.68109131 C45.13929401 27.48490419 45.13747755 32.28869574 45.1343255 37.09250903 C45.13178396 42.17992378 45.13414679 47.26733676 45.13571167 52.35475159 C45.13753887 60.96965862 45.13512389 69.58455715 45.13037109 78.19946289 C45.1256199 86.90845301 45.12546629 95.61742598 45.13037109 104.32641602 C45.15820376 154.89426594 44.98771583 205.44087398 44 256 C29.48 256 14.96 256 0 256 C0 171.52 0 87.04 0 0 Z " fill="#000000" transform="translate(216,394)"/>
</svg>
